<?xml version="1.0" encoding="UTF-8"?>
<svg width="32px" height="28px" viewBox="0 0 32 28" version="1.1" xmlns="http://www.w3.org/2000/svg" xmlns:xlink="http://www.w3.org/1999/xlink">
    <title>ec-probability-icon</title>
    <g id="Designs-v5-(final)" stroke="none" stroke-width="1" fill="none" fill-rule="evenodd">
        <g id="national-navigation-desktop" transform="translate(-314, -7)" fill="#D8D8D8" stroke="#FFFFFF" stroke-width="0.25">
            <g id="ec-probability-icon" transform="translate(314, 7)">
                <circle id="Oval" cx="2" cy="26" r="1.875"></circle>
                <circle id="Oval-Copy-25" cx="2" cy="22" r="1.875"></circle>
                <circle id="Oval-Copy-18" cx="6" cy="26" r="1.875"></circle>
                <circle id="Oval-Copy-26" cx="6" cy="22" r="1.875"></circle>
                <circle id="Oval-Copy-19" cx="10" cy="26" r="1.875"></circle>
                <circle id="Oval-Copy-27" cx="10" cy="22" r="1.875"></circle>
                <circle id="Oval-Copy-20" cx="14" cy="26" r="1.875"></circle>
                <circle id="Oval-Copy-28" cx="14" cy="22" r="1.875"></circle>
                <circle id="Oval-Copy-21" cx="18" cy="26" r="1.875"></circle>
                <circle id="Oval-Copy-29" cx="18" cy="22" r="1.875"></circle>
                <circle id="Oval-Copy-22" cx="22" cy="26" r="1.875"></circle>
                <circle id="Oval-Copy-30" cx="22" cy="22" r="1.875"></circle>
                <circle id="Oval-Copy-23" cx="26" cy="26" r="1.875"></circle>
                <circle id="Oval-Copy-31" cx="26" cy="22" r="1.875"></circle>
                <circle id="Oval-Copy-24" cx="30" cy="26" r="1.875"></circle>
                <circle id="Oval-Copy-39" cx="6" cy="18" r="1.875"></circle>
                <circle id="Oval-Copy-38" cx="10" cy="18" r="1.875"></circle>
                <circle id="Oval-Copy-37" cx="14" cy="18" r="1.875"></circle>
                <circle id="Oval-Copy-36" cx="18" cy="18" r="1.875"></circle>
                <circle id="Oval-Copy-35" cx="22" cy="18" r="1.875"></circle>
                <circle id="Oval-Copy-46" cx="10" cy="14" r="1.875"></circle>
                <circle id="Oval-Copy-45" cx="14" cy="14" r="1.875"></circle>
                <circle id="Oval-Copy-44" cx="18" cy="14" r="1.875"></circle>
                <circle id="Oval-Copy-43" cx="22" cy="14" r="1.875"></circle>
                <circle id="Oval-Copy-54" cx="10" cy="10" r="1.875"></circle>
                <circle id="Oval-Copy-53" cx="14" cy="10" r="1.875"></circle>
                <circle id="Oval-Copy-52" cx="18" cy="10" r="1.875"></circle>
                <circle id="Oval-Copy-62" cx="10" cy="6" r="1.875"></circle>
                <circle id="Oval-Copy-61" cx="14" cy="6" r="1.875"></circle>
                <circle id="Oval-Copy-69" cx="14" cy="2" r="1.875"></circle>
            </g>
        </g>
    </g>
</svg>