<?xml version="1.0" encoding="UTF-8"?>
<svg width="30px" height="26px" viewBox="0 0 30 26" version="1.1" xmlns="http://www.w3.org/2000/svg" xmlns:xlink="http://www.w3.org/1999/xlink">
    <title>Group 5</title>
    <g id="Designs-v5-(final)" stroke="none" stroke-width="1" fill="none" fill-rule="evenodd">
        <g id="national-navigation-desktop" transform="translate(-667, -7)" stroke="#d8d8d8">
            <g id="Group-5" transform="translate(668, 8)">
                <polyline id="Stroke-1" points="28 0.132599425 27.8193619 0.082058911 27.6387237 0.0939998016 27.4580856 0.236735099 27.2774475 0 27.0967549 0.286442527 26.9161167 0.415015372 26.7354786 0.63980958 26.5548405 0.788237628 26.3742023 0.778657146 26.1935642 0.974293365 26.0129261 0.852107508 25.8322335 0.740890608 25.6515953 0.92153129 25.4709572 0.792958445 25.2903191 0.656471288 25.1096809 0.702152137 24.9290428 0.699097491 24.7484047 0.886819399 24.5677665 0.908063076 24.3870739 0.949856194 24.2064358 0.920698205 24.0257977 1.06357235 23.8451595 1.18506397 23.6645214 1.39875037 23.4838833 1.4942775 23.3032451 1.63548547 23.122607 1.77516612 22.9419144 2.28320936 22.7612763 2.57742735 22.5806381 2.73446395 22.4 2.98452841 22.2193619 3.23306556 22.0387237 3.04603789 21.8580856 3.59587424 21.6774475 3.67473966 21.4967549 3.78915005 21.3161167 3.79317663 21.1354786 3.98006546 20.9548405 4.06920559 20.7742023 4.09058812 20.5935642 3.87759595 20.4129261 4.01408311 20.2322335 3.99422791 20.0515953 4.02185857 19.8709572 3.92480413 19.6903191 4.03296638 19.5096809 4.35162154 19.3290428 4.26095408 19.1484047 4.36189626 18.9677665 4.4139641 18.7870739 4.45978379 18.6064358 4.60807299 18.4257977 4.4565903 18.2451595 4.73664584 18.0645214 4.86841218 17.8838833 5.80563324 17.7032451 5.85450759 17.522607 5.89866111 17.3419144 6.07152633 17.1612763 5.92323713 16.9806381 6.13775662 16.8 6.07388674 16.6193619 6.55429932 16.4387237 7 16.2580856 6.60483983 16.0774475 6.55110582 15.8967549 6.41461867 15.7161167 6.29243281 15.5354786 6.31923039 15.3548405 5.36229297 15.1742023 5.32758108 14.9935642 5.24399484 14.8129261 5.37409501 14.6322335 5.27148666 14.4515953 5.45851433 14.2709572 5.63360111 14.0903191 5.2605177 13.9096809 5.42935634 13.7290428 5.72121392 13.5484047 5.57445205 13.3677665 5.25579689 13.1870739 5.49711395 13.0064358 5.90268769 12.8257977 5.85534067 12.6451595 5.77244868 12.4645214 5.89088565 12.2838833 6.0051572 12.1032451 6.20398691 11.922607 6.07388674 11.7419144 6.21273431 11.5612763 5.65415055 11.3806381 5.76939403 11.2 5.78674998 11.0193619 5.83562432 10.8387237 5.8592284 10.6580856 5.04585937 10.4774475 5.23441436 10.2967549 5.03322424 10.1161167 5.23913518 9.9354786 5.25177031 9.75484047 5.07432312 9.57420233 5.34257661 9.3935642 5.15082813 9.21292607 4.7587226 9.03223346 4.94338986 8.85159533 4.66569473 8.6709572 4.89132203 8.49031907 5.05543985 8.30968093 5.07904394 8.1290428 4.9811564 7.94840467 4.34856689 7.76776654 4.96380046 7.58707393 4.9528315 7.4064358 5.33382922 7.22579767 5.63762769 7.04515953 5.49711395 6.8645214 5.40408609 6.68388327 5.31494595 6.50324514 5.28342755 6.322607 5.68025389 6.1419144 4.30510761 5.96127626 4.38480611 5.78063813 4.31857582 5.6 4.40216205 5.41936187 4.23721115 5.23872374 4.24207081 5.0580856 3.40662501 4.87744747 3.47674303 4.69675486 3.38843598 4.51611673 3.32137261 4.3354786 3.67001884 4.15484047 3.44203114 3.97420233 3.65196866 3.7935642 3.60378855 3.61292607 3.73388872 3.43223346 3.80733909 3.25159533 3.90911435 3.0709572 4.3027472 2.89031907 4.23568382 2.70968093 4.3879996 2.5290428 4.63167708 2.34840467 4.20499851 2.16776654 4.30594069 1.98707393 4.4653377 1.8064358 4.56155906 1.62579767 5.80563324 1.44515953 5.95156204 1.2645214 6.41461867 1.08388327 6.38393335 0.903245136 6.46751959 0.722607004 6.56610136 0.541914397 5.94059308 0.361276265 6.06916592 0.180638132 6.10776555 0 6.16066647"></polyline>
                <polyline id="Stroke-3" points="28 23.864933 27.8193619 23.9035633 27.6387237 23.8981439 27.4580856 23.8104615 27.2774475 24 27.0967549 23.7047146 26.9161167 23.5909082 26.7354786 23.3912258 26.5548405 23.2443474 26.3742023 23.2593548 26.1935642 23.0532804 26.0129261 23.1954342 25.8322335 23.2964566 25.6515953 23.1109479 25.4709572 23.2033548 25.2903191 23.3430074 25.1096809 23.3004864 24.9290428 23.2822829 24.7484047 23.0650918 24.5677665 23.0564764 24.3870739 23.0161787 24.2064358 23.0477221 24.0257977 22.9040397 23.8451595 22.7967643 23.6645214 22.5851315 23.4838833 22.5030074 23.3032451 22.3576576 23.122607 22.2053598 22.9419144 21.7222035 22.7612763 21.4387295 22.5806381 21.2547494 22.4 21.0115732 22.2193619 20.7707593 22.0387237 20.9507097 21.8580856 20.405995 21.6774475 20.323871 21.4967549 20.2110372 21.3161167 20.2078412 21.1354786 20.0301141 20.9548405 19.9425707 20.7742023 19.905469 20.5935642 20.1241886 20.4129261 20.0088536 20.2322335 20.0294194 20.0515953 20.0159404 19.8709572 20.0901439 19.6903191 19.9693896 19.5096809 19.6677122 19.3290428 19.7712357 19.1484047 19.6408933 18.9677665 19.5911464 18.7870739 19.5366749 18.6064358 19.4041092 18.4257977 19.5509876 18.2451595 19.2896079 18.0645214 19.1364764 17.8838833 18.22533 17.7032451 18.1494591 17.522607 18.1170819 17.3419144 17.9229578 17.1612763 18.0879007 16.9806381 17.8858561 16.8 17.9276824 16.6193619 17.4428586 16.4387237 17 16.2580856 17.3749082 16.0774475 17.4342432 15.8967549 17.5612506 15.7161167 17.6907593 15.5354786 17.6544913 15.3548405 18.6051017 15.1742023 18.6327543 14.9935642 18.7045955 14.8129261 18.587732 14.6322335 18.6958412 14.4515953 18.5039404 14.2709572 18.3469181 14.0903191 18.6902829 13.9096809 18.5435434 13.7290428 18.2379752 13.5484047 18.3840199 13.3677665 18.6990372 13.1870739 18.4550273 13.0064358 18.0619156 12.8257977 18.0949876 12.6451595 18.1787792 12.4645214 18.0769231 12.2838833 17.9497767 12.1032451 17.7619057 11.922607 17.8865509 11.7419144 17.7437022 11.5612763 18.2907792 11.3806381 18.2008734 11.2 18.1794739 11.0193619 18.1116625 10.8387237 18.0919305 10.6580856 18.9066402 10.4774475 18.7243275 10.2967549 18.9153945 10.1161167 18.7219653 9.9354786 18.6990372 9.75484047 18.871067 9.57420233 18.6105211 9.3935642 18.8056179 9.21292607 19.180665 9.03223346 18.9887643 8.85159533 19.2651514 8.6709572 19.042402 8.49031907 18.8924665 8.30968093 18.8624516 8.1290428 18.9555533 7.94840467 19.5919801 7.76776654 18.9816774 7.58707393 18.9926551 7.4064358 18.6192754 7.22579767 18.320794 7.04515953 18.4550273 6.8645214 18.5339553 6.68388327 18.6310868 6.50324514 18.6698561 6.322607 18.2766055 6.1419144 19.6503424 5.96127626 19.5707196 5.78063813 19.6258859 5.6 19.565995 5.41936187 19.7135682 5.23872374 19.7096774 5.0580856 20.5291117 4.87744747 20.4722779 4.69675486 20.574134 4.51611673 20.6286055 4.3354786 20.2946898 4.15484047 20.5039603 3.97420233 20.2899653 3.7935642 20.343603 3.61292607 20.2140943 3.43223346 20.1351663 3.25159533 20.0349777 3.0709572 19.6456179 2.89031907 19.7191266 2.70968093 19.579335 2.5290428 19.3203176 2.34840467 19.7317717 2.16776654 19.6567345 1.98707393 19.4924864 1.8064358 19.3985509 1.62579767 18.1787792 1.44515953 18.034263 1.2645214 17.5636129 1.08388327 17.6000199 0.903245136 17.5060844 0.722607004 17.4270174 0.541914397 18.0398213 0.361276265 17.9079504 0.180638132 17.8620943 0 17.8013697"></polyline>
            </g>
        </g>
    </g>
</svg>