<?xml version="1.0" encoding="UTF-8"?>
<svg width="30px" height="23px" viewBox="0 0 30 23" version="1.1" xmlns="http://www.w3.org/2000/svg" xmlns:xlink="http://www.w3.org/1999/xlink">
    <title>Group 56</title>
    <g id="Designs-v5-(final)" stroke="none" stroke-width="1" fill="none" fill-rule="evenodd">
        <g id="Group-56" transform="translate(1.2828, 1.3288)" stroke="#979797">
            <path d="M0,0 L0,17.7659826 C2.02906125e-16,19.4228368 1.34314575,20.7659826 3,20.7659826 L24.673808,20.7659826 C26.3306622,20.7659826 27.673808,19.4228368 27.673808,17.7659826 L27.673808,4.72114339 L27.673808,4.72114339 L23.8899686,4.72114339 L23.8899686,0 L0,0 Z" id="Path-2" fill="#FFFFFF"></path>
            <rect id="Rectangle" x="3.96670244" y="3.9237475" width="6.46080396" height="4.59560297"></rect>
            <line x1="13.2590076" y1="4.58949812" x2="19.7872111" y2="4.58949812" id="Line-22" stroke-linecap="square"></line>
            <line x1="13.2590076" y1="8.08674997" x2="19.7872111" y2="8.08674997" id="Line-22" stroke-linecap="square"></line>
            <line x1="3.93300269" y1="11.817152" x2="19.7872111" y2="11.817152" id="Line-22" stroke-linecap="square"></line>
            <line x1="3.93300269" y1="15.5475539" x2="19.7872111" y2="15.5475539" id="Line-22" stroke-linecap="square"></line>
            <path d="M23.9281471,4.46765088 L23.9281471,18.052446 C23.9281471,19.0360299 24.7254993,19.8333821 25.7090831,19.8333821 L25.7090831,19.8333821 L25.7090831,19.8333821 L25.8134218,19.8333821 C26.8408847,19.8333821 27.673808,19.0004588 27.673808,17.9729959 L27.673808,17.9729959 L27.673808,17.9729959" id="Path-3"></path>
            <path d="M23.9281471,3.2425926 L26.5394284,3.2425926 L26.5394284,19.6509961 C25.1944731,19.7449351 24.0280188,18.7307859 23.9340799,17.3858305 C23.9301259,17.3292196 23.9281471,17.2724879 23.9281471,17.215739 L23.9281471,3.2425926 L23.9281471,3.2425926 Z" id="Path-5" fill="#FFFFFF"></path>
            <path d="M23.9281471,1.21951411 L25.3270478,1.21951411 L25.3270478,19.8333821 C24.5544563,19.8333821 23.9281471,19.2070729 23.9281471,18.4344814 L23.9281471,1.21951411 L23.9281471,1.21951411 Z" id="Path-4" fill="#FFFFFF"></path>
        </g>
    </g>
</svg>