<?xml version="1.0" encoding="UTF-8"?>
<svg width="88px" height="23px" viewBox="0 0 88 23" version="1.1" xmlns="http://www.w3.org/2000/svg" xmlns:xlink="http://www.w3.org/1999/xlink">
    <title>Stroke 1</title>
    <g id="Designs-v5-(final)" stroke="none" stroke-width="1" fill="none" fill-rule="evenodd">
        <g id="national-navigation-desktop" transform="translate(-953, -11)" stroke="#D8D8D8" stroke-width="3">
            <g id="Desktop-navigation">
                <path d="M954,20.6794589 C957.2,20.6254589 960.444,22.3564589 962.288,23.3394589 C964.873,24.7184589 966.21,26.1244589 969.187,26.4194589 C970.094,26.5094589 971.254,26.6244589 972.334,26.2794589 C977.39,24.6654589 973.566,15.2544589 978.445,13.6794589 C979.595,13.3084589 981.107,13.4114589 982.174,13.8194589 C988.351,16.1824589 980.731,29.1864589 986.639,31.4594589 C988.054,32.0034589 990.046,31.8554589 991.347,31.3194589 C997.743,28.6834589 990.073,15.2874589 995.973,13.5394589 C996.079,13.5084589 997.652,13.0614589 999.22,13.5394589 C1004.787,15.2364589 996.418,28.2434589 1002.891,31.3194589 C1004.151,31.9174589 1006.238,32.2804589 1007.743,31.7394589 C1013.631,29.6204589 1005.793,15.3774589 1011.801,13.2594589 C1013.113,12.7974589 1014.779,13.0204589 1015.793,13.3994589 C1021.011,15.3504589 1016.855,24.3804589 1021.904,25.9994589 C1023.097,26.3814589 1024.343,26.2034589 1024.789,26.1394589 C1028.333,25.6314589 1028.657,22.8024589 1032.094,21.3794589 C1034.999,20.1764589 1038.417,20.6874589 1040.238,20.9594589" id="Stroke-1"></path>
            </g>
        </g>
    </g>
</svg>