<?xml version="1.0" encoding="UTF-8"?>
<svg width="31px" height="24px" viewBox="0 0 31 24" version="1.1" xmlns="http://www.w3.org/2000/svg" xmlns:xlink="http://www.w3.org/1999/xlink">
    <title>Group 7 Copy 4</title>
    <g id="Designs-v5-(final)" stroke="none" stroke-width="1" fill="none" fill-rule="evenodd">
        <g id="unusual-scenarios-table" transform="translate(-496, -11)" fill="#D8D8D8">
            <g id="Group-7-Copy-4" transform="translate(495.9989, 10.9996)">
                <path d="M8.75304197,24.0004176 L7.45609895,19.0521015 L12.7047479,17.6569698 L14.001691,22.6052859 L8.75304197,24.0004176 Z M0,6.50925386 C0.206452154,5.03409548 1.94012088,1.6249591 6.60382211,0.381878072 C11.3601621,-0.882543402 14.0996234,1.16880705 14.8274996,3.95373536 C16.0609189,8.65396877 10.2802585,10.6573032 11.3125193,15.3441988 L7.50638858,16.3578701 C7.38728157,16.0270931 7.31317054,15.7469998 7.20994446,15.3441988 C5.89712051,10.334529 10.3967187,7.84569935 9.72442583,5.27684306 C9.44121582,4.19381538 8.35072495,3.66030421 6.99819866,4.0177567 C5.37304965,4.4525683 4.23756281,6.01042092 3.74790065,7.53092775 L0,6.50925386 Z" id="Fill-1"></path>
                <path d="M20.5868621,1.61146724 C21.6474045,0.969338655 24.7658388,0.294697235 28.0656093,2.63020288 C31.4258252,5.01718718 31.5659487,7.84038541 30.1619664,9.76406175 C27.7908574,13.0126363 23.4113118,10.3601305 20.9467871,13.4786537 L18.2569659,11.5712337 C18.4053319,11.3219686 18.5482029,11.129601 18.7487718,10.8505325 C21.2764894,7.38791506 25.2851199,8.96478778 26.5792014,7.19283802 C27.1259577,6.44233331 26.8869236,5.46423872 25.9335344,4.7868879 C24.7823239,3.97135751 23.1695301,4.06076782 21.930399,4.54575101 L20.5868621,1.61146724 Z M14.0010587,16.369587 L16.4958061,12.95032 L20.2022095,15.5784412 L17.7074621,19.0004176 L14.0010587,16.369587 Z" id="Fill-4"></path>
            </g>
        </g>
    </g>
</svg>