<?xml version="1.0" encoding="UTF-8"?>
<svg width="51px" height="31px" viewBox="0 0 51 31" version="1.1" xmlns="http://www.w3.org/2000/svg" xmlns:xlink="http://www.w3.org/1999/xlink">
    <title>Group 10 Copy</title>
    <g id="Designs-v5-(final)" stroke="none" stroke-width="1" fill="none" fill-rule="evenodd">
        <g id="national-navigation-desktop" transform="translate(-764, -7)">
            <g id="Group-10-Copy" transform="translate(765, 8)">
                <path d="M6.75333117,22.0242967 L6.67429314,22.14013 L6.59681508,22.1921137 L6.51829704,22.204262 L6.480078,22.1963515 L6.43925902,22.2084998 L6.43639909,22.1892885 L6.39688008,22.1915486 L6.28196295,22.3135973 L6.23438414,22.3511725 L6.16028599,22.3833797 L6.11296718,22.3715139 L6.10620734,22.3489123 L6.039909,22.4195423 L6.01390965,22.4661581 L5.95879103,22.5254873 L5.92577186,22.6012027 L5.90289243,22.6904791 L5.83555411,22.7743875 L5.76977576,22.8241111 L5.72973676,22.8393672 L5.5841404,22.8424749 L5.46896328,22.8102676 L5.44660383,22.928926 L5.41696458,22.984865 L5.36964576,22.9947532 L5.36990575,23.0083142 L5.42294443,23.0569076 L5.47286318,23.1329055 L5.51238219,23.1490092 L5.54748131,23.1933648 L5.62339942,23.3032651 L5.66317842,23.3453606 L5.68631784,23.3905638 L5.70607735,23.5055495 L5.70165746,23.5561206 L5.81501462,23.6208177 L5.84621384,23.6061266 L5.85245369,23.6264681 L5.90861228,23.6414417 L5.96685083,23.624773 L5.98427039,23.646527 L5.94761131,23.7558623 L5.99831004,23.8253622 L5.98167046,23.8716955 L5.93565161,23.8199943 L5.91693208,23.7776163 L5.93149171,23.7293054 L5.89119272,23.6609355 L5.85271368,23.6702587 L5.85947351,23.7355208 L5.9041924,23.7634903 L5.9400715,23.8375106 L5.92759181,23.9016427 L5.98583035,23.8894943 L6.04198895,23.920289 L6.02664933,23.96973 L6.00766981,23.949106 L5.9759506,23.9502361 L5.92369191,24.0313194 L5.88183295,24.0039149 L5.84569386,24.0183234 L5.80721482,24.0081527 L5.79239519,23.9863987 L5.7320767,23.9883763 L5.68189795,23.9722727 L5.64055899,23.9742503 L5.62573936,23.9194414 L5.64315892,23.8892118 L5.64315892,23.8428785 L5.66993825,23.7812891 L5.63821904,23.7601001 L5.57634059,23.7547322 L5.45622359,23.7798765 L5.34598635,23.8199943 L5.34182645,23.857287 L5.36678583,23.8683053 L5.35040624,23.9092707 L5.30854729,23.8948622 L5.2721482,23.856722 L5.18999025,23.8948622 L5.06857329,23.9621019 L4.97445564,23.9962869 L4.97133572,24.0375348 L5.01969451,24.082173 L5.04855379,24.1217258 L5.11355216,24.1496953 L5.14475138,24.1737095 L5.18661033,24.1824676 L5.1840104,24.2471647 L5.15333117,24.2666586 L5.1359116,24.314687 L5.17075073,24.3689309 L5.14995125,24.420067 L5.15775106,24.4613149 L5.18479038,24.4912621 L5.30074748,24.5446584 L5.36080598,24.5827986 L5.39174521,24.5808209 L5.47624309,24.5514388 L5.58674033,24.56839 L5.6358791,24.6152884 L5.6439389,24.6435404 L5.67123822,24.5924042 L5.69905752,24.6113331 L5.70139747,24.6825282 L5.72869678,24.6619042 L5.75053624,24.6051176 L5.80201495,24.5782782 L5.81475463,24.5553941 L5.85817355,24.5525689 L5.89821254,24.5223393 L5.93643159,24.5378779 L5.98427039,24.4791137 L6.03236919,24.5661299 L6.02534937,24.6093555 L5.97751056,24.6500383 L5.93305167,24.6291319 L5.94423139,24.6864834 L5.9840104,24.7542883 L5.98193045,24.8139 L6.00168996,24.9161723 L5.99909002,24.9427291 L5.92889178,25.0433063 L5.85895353,25.0565847 L5.78303542,25.0469791 L5.77731557,25.0192921 L5.74429639,25.02579 L5.66889828,25.1195867 L5.59844004,25.1777858 L5.55268118,25.179481 L5.49288268,25.0989627 L5.44660383,25.0715583 L5.38056549,25.0800339 L5.33948651,25.1198692 L5.28280793,25.2277919 L5.28228794,25.2955967 L5.2679883,25.2842959 L5.23886903,25.3283691 L5.1078323,25.4662389 L5.08625284,25.5125721 L5.07429314,25.5854623 L5.01553461,25.5789644 L5.03789405,25.6462041 L4.9960351,25.6504419 L4.99239519,25.7052508 L5.02957426,25.686887 L5.01943451,25.742826 L5.02983425,25.7914195 L5.06155346,25.806393 L5.0560936,25.8747629 L5.09639259,25.897082 L5.10653234,25.8595068 L5.1359116,25.9018848 L5.11641209,25.9414376 L5.11277218,25.9911612 L5.14319142,25.9795778 L5.12265193,26.0584009 L5.07949301,26.094846 L5.11901202,26.1993785 L5.16321092,26.2245227 L5.20662983,26.3219922 L5.23938902,26.3471365 L5.23574911,26.410421 L5.27396815,26.4414982 L5.32180695,26.4542116 L5.41384465,26.4474311 L5.49470263,26.4126811 L5.54306142,26.4050531 L5.56178096,26.3341405 L5.5958401,26.3742584 L5.61247969,26.460992 L5.63873903,26.5220164 L5.66655834,26.6271139 L5.61481963,26.6706219 L5.62495938,26.7932357 L5.6241794,26.9079388 L5.58622034,26.9520119 L5.61715957,26.9974977 L5.69385765,26.9607701 L5.7039974,26.9311055 L5.800195,26.8873148 L5.90731232,26.8220527 L5.91719207,26.8915526 L5.95021124,26.9008758 L5.97517062,26.9449489 L5.99415015,26.9381685 L6.01260968,26.8887274 L6.03444914,26.8907051 L6.07162821,26.9624652 L6.1241469,27.1031602 L6.15560611,27.1192638 L6.19486513,27.0845139 L6.16990575,26.9974977 L6.19226519,26.9308229 L6.22164446,26.9138717 L6.22866428,26.9582274 L6.25856354,26.9774388 L6.26974326,27.0184042 L6.3240819,27.0330952 L6.50373741,26.9486217 L6.50867728,27.0144489 L6.43171921,27.0944021 L6.36958076,27.4020664 L6.37010075,27.445857 L6.30588235,27.5207249 L6.22684433,27.5749687 L6.16522587,27.6628325 L6.15404615,27.7057755 L6.16340591,27.7515438 L6.13376666,27.7600194 L6.10074748,27.7317674 L6.02248944,27.797312 L5.91693208,27.83856 L5.8480338,27.8888485 L5.79551511,27.9422448 L5.75105622,28.0408443 L5.75391615,28.0631634 L5.80461488,28.1013036 L5.79967501,28.1383138 L5.76873578,28.1244703 L5.7559961,28.0925455 L5.70295743,28.0902853 L5.69073773,28.1380312 L5.66759831,28.1049764 L5.69541761,28.0676837 L5.68735782,28.0312386 L5.64289893,28.0507325 L5.60077998,28.028696 L5.49158271,28.0518626 L5.39330517,28.1230577 L5.31374716,28.2072487 L5.23834904,28.3013278 L5.19155021,28.2945474 L5.14605135,28.3095209 L5.14475138,28.3583969 L5.11693208,28.395407 L5.0958726,28.3349477 L5.02047449,28.3253421 L4.91881703,28.3682851 L4.87539812,28.3631997 L4.82911927,28.4445655 L4.78232044,28.4609517 L4.78596035,28.5372321 L4.8278193,28.5558784 L4.89255769,28.5352545 L4.90113747,28.5109577 L4.95729607,28.4849659 L5.06259344,28.5044598 L5.12343191,28.4601041 L5.16035099,28.486661 L5.16269093,28.4601041 L5.11641209,28.43722 L5.19519012,28.3917343 L5.16035099,28.3521815 L5.17023074,28.3290148 L5.20870978,28.3386205 L5.23262918,28.4044477 L5.27916802,28.3818461 L5.29918752,28.3295799 L5.27396815,28.2920047 L5.28930777,28.2648828 L5.31920702,28.2860718 L5.31790705,28.3651774 L5.36938577,28.3824111 L5.38316542,28.3326876 L5.40578486,28.3688501 L5.4960026,28.2462364 L5.49886253,28.2027283 L5.52538187,28.1645881 L5.54514137,28.2168543 L5.5321417,28.2691206 L5.58830029,28.2770311 L5.67045824,28.219397 L5.70841729,28.2518868 L5.73077673,28.2103564 L5.73701657,28.2487791 L5.77081573,28.1990556 L5.84335392,28.1600678 L5.85245369,28.1329459 L5.89873253,28.1106268 L5.93253169,28.1247528 L5.92031199,28.1942527 L5.93071173,28.219397 L5.98843029,28.112887 L6.16886578,28.0860475 L6.23750406,27.9634338 L6.18264543,27.9425273 L6.21722457,27.888001 L6.25830354,27.8993018 L6.29366266,27.8798079 L6.30432239,27.8233039 L6.33786155,27.8170884 L6.35320117,27.845623 L6.41741956,27.7487186 L6.45043874,27.7879889 L6.46109847,27.761997 L6.51725707,27.7173588 L6.5840754,27.7069056 L6.62957426,27.6032207 L6.63165421,27.5354159 L6.65843354,27.5145094 L6.69379266,27.5289179 L6.69145271,27.4791944 L6.7520312,27.487105 L6.79103022,27.3933083 L6.82326942,27.4257981 L6.83418915,27.3774872 L6.88176796,27.3613835 L6.87500812,27.3283287 L6.90100747,27.304597 L6.93454664,27.3088348 L6.9680858,27.2873633 L7.00370491,27.2876458 L7.06454339,27.2271865 L7.09340266,27.1616418 L7.08092298,27.1181338 L7.10770231,27.1045728 L7.1121222,27.0692578 L7.15398115,27.0667151 L7.19844004,27.0274448 L7.22443939,26.9630302 L7.20545986,26.924325 L7.13916152,26.8921177 L7.05622359,26.8847722 L7.07052324,26.7644186 L7.14280143,26.7387093 L7.13682158,26.6940711 L7.16984075,26.692376 L7.19636009,26.6302216 L7.21377966,26.6629939 L7.2678583,26.6341769 L7.2720182,26.5550712 L7.33025674,26.5432054 L7.35391615,26.4804859 L7.32323692,26.439803 L7.38355541,26.3861242 L7.39681508,26.3047584 L7.42723432,26.2756589 L7.4360741,26.2290431 L7.47923302,26.2058764 L7.48365291,26.1632159 L7.53903152,26.0979537 L7.59415015,26.0821326 L7.61650959,26.0261936 L7.67058824,25.995399 L7.67968801,25.9767526 L7.71270718,25.9956815 L7.75924602,25.9877709 L7.78446539,26.0278888 L7.84634384,26.0784599 L7.79564511,26.1242281 L7.75846604,26.1157525 L7.72908677,26.0773298 L7.61650959,26.1844049 L7.55645109,26.213787 L7.58427039,26.2818743 L7.58063048,26.3465714 L7.56581085,26.3581547 L7.56035099,26.4169189 L7.51251219,26.4915042 L7.48469288,26.593494 L7.49327267,26.6175082 L7.55411115,26.650563 L7.62326942,26.5878436 L7.62248944,26.6316342 L7.56997075,26.6861606 L7.56217095,26.713565 L7.53149171,26.7096097 L7.48547286,26.7358841 L7.47065323,26.8042539 L7.54371141,26.8392864 L7.57725057,26.7892804 L7.59675008,26.8178149 L7.65316867,26.8079267 L7.70256744,26.7152601 L7.72778681,26.7163902 L7.75690608,26.6709045 L7.78628534,26.6824878 L7.82606435,26.6423699 L7.83906402,26.5997094 L7.87676308,26.5923639 L7.91706207,26.5590265 L7.90276243,26.5358599 L7.92928177,26.481616 L7.9558011,26.5158009 L7.96750081,26.4737055 L7.99324017,26.4499738 L7.99402015,26.4827461 L8.05017875,26.4754006 L8.07383815,26.4940469 L8.11465713,26.4660774 L8.14351641,26.4804859 L8.19083523,26.4587319 L8.16483588,26.3736933 L8.12973676,26.3635226 L8.13753656,26.3299027 L8.17367566,26.3482665 L8.18355541,26.2815918 L8.15235619,26.2222626 L8.14351641,26.1657586 L8.09905752,26.1445696 L8.12349691,26.0629213 L8.14299643,26.0584009 L8.13311667,26.1338338 L8.1559961,26.1473948 L8.20045499,26.1321387 L8.200195,26.0906082 L8.26909327,26.0954111 L8.2839129,26.0572709 L8.30263243,26.0697017 L8.35489113,26.0490778 L8.36685083,26.0182831 L8.41780955,26.129596 L8.45654859,26.1310086 L8.47812805,26.1747992 L8.51868703,26.1521976 L8.53454664,26.185535 L8.44874878,26.242039 L8.42040949,26.2369536 L8.40454989,26.2745288 L8.43028924,26.3347056 L8.46980825,26.262663 L8.55898603,26.1934455 L8.57692558,26.2216975 L8.67754306,26.2787666 L8.68846279,26.2231101 L8.7399415,26.2118093 L8.75658109,26.2680308 L8.78466038,26.2996731 L8.8639584,26.3140816 L8.93285668,26.3606974 L8.97861553,26.3366832 L9.11043224,26.2911975 L9.17153071,26.2821568 L9.27838804,26.2886548 L9.32934677,26.3067361 L9.37172571,26.2895024 L9.38186545,26.3270775 L9.48378291,26.3573072 L9.59818005,26.3516568 L9.68059799,26.276789 L9.70841729,26.1844049 L9.72427689,26.2016386 L9.7078973,26.2505146 L9.74377641,26.3228397 L9.73025674,26.3609799 L9.71075723,26.347984 L9.71647709,26.4025104 L9.78615535,26.4381079 L9.88729282,26.466925 L9.94891128,26.4985672 L10.0523887,26.516366 L10.1002275,26.566372 L10.1155671,26.6059248 L10.1922652,26.6564959 L10.2947026,26.7096097 L10.3251219,26.7011341 L10.3485213,26.7254308 L10.4072798,26.7525528 L10.3953201,26.699439 L10.4376991,26.7096097 L10.4935977,26.6564959 L10.4522587,26.6047948 L10.4335392,26.5562013 L10.4140396,26.559309 L10.3493013,26.5104331 L10.280143,26.5039351 L10.2845629,26.4776607 L10.4189795,26.5237115 L10.4421189,26.4917867 L10.4941176,26.5578964 L10.5169971,26.6494329 L10.5640559,26.6160956 L10.6048749,26.6149655 L10.6495938,26.6703394 L10.6880728,26.6709045 L10.678453,26.6129879 L10.6311342,26.5344473 L10.6358141,26.5141058 L10.5708157,26.4205917 L10.5489763,26.3683255 L10.5505362,26.3019332 L10.6597335,26.5545062 L10.7806305,26.6398273 L10.8656484,26.6268313 L10.8913877,26.6663841 L10.9628859,26.7339064 L11.001105,26.7398394 L11.0122847,26.804819 L11.0492038,26.812447 L11.0913227,26.966138 L11.2075398,26.9850668 L11.2727982,27.0435485 L11.3518362,27.0850789 L11.3806955,27.072083 L11.3843354,27.1514711 L11.4126747,27.2037373 L11.3765356,27.2167333 L11.3531362,27.2752149 L11.3897953,27.3410421 L11.4079948,27.3153328 L11.4724732,27.3862453 L11.4984725,27.3331315 L11.5226519,27.3769221 L11.5091323,27.4354038 L11.5322717,27.4755217 L11.5834904,27.494733 L11.5710107,27.4495298 L11.6123497,27.3992412 L11.6139097,27.5001009 L11.7223269,27.551237 L11.7441664,27.52242 L11.7800455,27.5458692 L11.8081248,27.4769343 L11.8255444,27.4854099 L11.7940851,27.544174 L11.8297043,27.5752512 L11.8343841,27.6091537 L11.879103,27.6806312 L11.9012025,27.6577471 L11.9337017,27.6885418 L11.9771206,27.5862695 L11.9888203,27.4622432 L12,27.424103 L11.9326617,27.3209832 L11.9045824,27.2534609 L11.9043224,27.1579691 L11.8697433,27.1212415 L11.8044849,27.136215 L11.7829054,27.1023126 L11.7506662,27.1034427 L11.7080273,27.079146 L11.6443289,27.0876216 L11.5247319,27.0449611 L11.4771531,27.0681277 L11.4462138,26.9938249 L11.3892753,26.9856318 L11.3832954,26.9133067 L11.318297,26.9195221 L11.3250569,26.8658433 L11.2337992,26.7760019 L11.1373416,26.6689268 L11.081443,26.6237236 L11.0460838,26.572305 L10.8594085,26.3948824 L10.7715307,26.3697381 L10.7320117,26.3347056 L10.7299318,26.3098438 L10.6490738,26.2476894 L10.599415,26.249667 L10.5653559,26.2007911 L10.558076,26.1440045 L10.4535587,26.0793074 L10.3849204,26.157283 L10.3324017,26.1880777 L10.3407215,26.2524922 L10.3087423,26.2618154 L10.3285018,26.3304678 L10.318882,26.3835815 L10.2754631,26.3985551 L10.2102047,26.4824636 L10.1860253,26.5279493 L10.1267468,26.4064657 L9.89691258,26.2510796 L9.87143321,26.1988134 L9.80253494,26.1801671 L9.76821579,26.1496549 L9.76535587,26.0408847 L9.65901852,26.073092 L9.61975951,26.1468297 L9.5238219,26.1177302 L9.51966201,26.1547403 L9.43126422,26.1406143 L8.76568086,22.4935626 L8.73656159,22.4839569 L8.71810205,22.5085361 L8.70770231,22.4862171 L8.66558336,22.4574 L8.62736432,22.4605077 L8.61488463,22.4407313 L8.57042574,22.4266053 L8.51894703,22.3856399 L8.45082873,22.3678411 L8.42144946,22.3839448 L8.41936952,22.3647334 L8.36737082,22.3771643 L8.35073123,22.4090891 L8.3039324,22.4283004 L8.28703282,22.4525972 L8.21319467,22.4551398 L8.15521612,22.4274529 L8.12141696,22.3997659 L8.09229769,22.4119143 L8.03873903,22.4031562 L7.99168021,22.4090891 L7.95762106,22.4234976 L7.89054274,22.4141744 L7.8759831,22.3975058 L7.8518037,22.372644 L7.82034449,22.3624733 L7.80344491,22.3808371 L7.7678258,22.3398717 L7.74546636,22.3480647 L7.69476763,22.3198127 L7.65888853,22.309642 L7.60844979,22.3181176 L7.57881053,22.3494773 L7.54969126,22.3489123 L7.5478713,22.3277233 L7.49743256,22.3282883 L7.44595385,22.3568229 L7.44543386,22.3760342 L7.37055574,22.3384591 L7.36483588,22.3150099 L7.28891778,22.2935384 L7.30659734,22.2017193 L7.26577836,22.1853332 L7.18622034,22.1723372 L7.1558011,22.1867458 L7.10120247,22.189571 L7.07000325,22.2344917 L7.04920377,22.2070872 L7.01358466,22.1938088 L7.02320442,22.1466279 L6.96730582,22.084191 L6.94676633,22.1514308 L6.93870653,22.1347621 L6.91166721,22.1635791 L6.90750731,22.1955039 L6.84952876,22.2138677 L6.85030874,22.1536909 L6.86850829,22.1519958 L6.90880728,22.1079227 L6.90048749,22.0745853 L6.78869028,22.021189 L6.78427039,22 L6.75333117,22.0242967 Z M4.21059474,24.693829 L4.21709457,24.7463777 L4.25479363,24.7811277 L4.32265193,24.7542883 L4.35931102,24.7661541 L4.42768931,24.8401744 L4.43418915,24.8842475 L4.46616835,24.898091 L4.49424764,24.9430117 L4.51348716,25.0043185 L4.54650634,24.9528999 L4.57406565,24.9325584 L4.6200845,24.9328409 L4.65726357,24.9560076 L4.69730257,24.9048715 L4.65050374,24.8760544 L4.56938577,24.8441296 L4.55456614,24.8150301 L4.49684758,24.7723695 L4.49944751,24.723211 L4.4760481,24.6881786 L4.44484888,24.6746176 L4.36087098,24.7037172 L4.24985375,24.6099205 L4.21059474,24.693829 Z M5.6961976,24.9642007 L5.69931752,25.0003632 L5.72843679,24.9639181 L5.6961976,24.9642007 Z M4.83093923,26.1496549 L4.79662008,26.1473948 L4.75762106,26.1810147 L4.69418265,26.1536102 L4.67260318,26.1626508 L4.67624309,26.2180248 L4.70952226,26.2587077 L4.73292168,26.263793 L4.79064023,26.3330105 L4.82287943,26.3383783 L4.88319792,26.3951649 L4.9000975,26.3578722 L4.95027624,26.3454413 L4.97471563,26.3129515 L4.98641534,26.1990959 L4.95547611,26.1660411 L4.91855704,26.1660411 L4.91413715,26.1355289 L4.87071823,26.1428744 L4.84965876,26.1247932 L4.83093923,26.1496549 Z M8.20929477,26.2654882 L8.1879753,26.3663478 L8.22619435,26.3906445 L8.2438739,26.3033458 L8.24673383,26.2200024 L8.20929477,26.2654882 Z M8.28677283,26.4087258 L8.22619435,26.4796384 L8.21735457,26.5415103 L8.27767306,26.5084554 L8.280013,26.4691851 L8.34735132,26.3604149 L8.32187195,26.3352706 L8.28677283,26.4087258 Z M10.718492,26.6573435 L10.7548911,26.6937886 L10.7977901,26.791258 L10.8048099,26.8344836 L10.8497888,26.9073738 L10.8742281,26.9703758 L10.8726682,27.0178391 L10.9012675,27.0895992 L10.921287,27.0842313 L10.9678258,26.9938249 L10.9714657,26.9559672 L11.0050049,26.9166969 L10.9649659,26.8245954 L10.9093273,26.78363 L10.9090673,26.7454898 L10.9501462,26.7497276 L10.8674683,26.6629939 L10.8609685,26.6333293 L10.8256094,26.6488679 L10.7554111,26.6403923 L10.6909327,26.5838883 L10.718492,26.6573435 Z M10.5232369,26.7220406 L10.4662983,26.7375792 L10.4421189,26.7194979 L10.4475788,26.7748719 L10.4275593,26.8031239 L10.439779,26.8649958 L10.4868378,26.8875974 L10.5357166,26.952577 L10.5838154,26.9771562 L10.6176146,27.0234895 L10.6563536,27.0280098 L10.6696133,27.0003229 L10.6607735,27.0268798 L10.7309717,27.0881866 L10.7743906,27.1794406 L10.7689308,27.2240788 L10.8276893,27.2610889 L10.9465063,27.4077168 L10.9797855,27.423538 L10.9743256,27.3783347 L10.9272668,27.2088227 L10.8328892,27.0217944 L10.8146896,26.9619001 L10.7736107,26.9698107 L10.7229119,26.9593575 L10.6914527,26.9353433 L10.6758531,26.9816766 L10.6511537,26.9022884 L10.7650309,26.9551197 L10.8102697,26.9240425 L10.761911,26.8308108 L10.7431914,26.8291157 L10.7429314,26.7469024 L10.6966526,26.7161077 L10.6272343,26.7178028 L10.6163146,26.7830649 L10.600715,26.7663963 L10.6160546,26.7073496 L10.5513162,26.67825 L10.5232369,26.7220406 Z M11.1443614,27.0200993 L11.0312642,27.0209468 L11.0068248,27.0556968 L11.0445239,27.0850789 L11.0624634,27.1158736 L11.0967826,27.1054203 L11.1103022,27.1655971 L11.1454014,27.2526133 L11.1864803,27.2195585 L11.2340591,27.2218186 L11.2564186,27.1833959 L11.3026974,27.1783105 L11.3271368,27.1441256 L11.319857,27.0980748 L11.2423789,27.0619123 L11.1893403,27.0028656 L11.1443614,27.0200993 Z M10.6316542,27.050894 L10.6511537,27.1014651 L10.6644134,27.1794406 L10.7049724,27.1557089 L10.7049724,27.1037252 L10.6592135,27.0424184 L10.6316542,27.050894 Z M7.31907702,27.1788756 L7.2761781,27.1881987 L7.23041924,27.2918836 L7.29697758,27.3175929 L7.29749756,27.2995116 L7.35261618,27.2851031 L7.38641534,27.2562861 L7.46337342,27.2458328 L7.46129347,27.1814183 L7.40721482,27.1367801 L7.38121547,27.1667272 L7.34715632,27.0833838 L7.31907702,27.1788756 Z M11.0034449,27.1331073 L10.9727657,27.1181338 L10.9569061,27.1486459 L10.9727657,27.1952617 L11.0193045,27.248093 L11.0541436,27.269847 L11.0343841,27.3308714 L11.0762431,27.4337087 L11.1032824,27.4537676 L11.0918427,27.3992412 L11.1272018,27.4074343 L11.1256419,27.31166 L11.1006825,27.2972515 L11.0952226,27.2164507 L11.119922,27.199217 L11.0926227,27.1348024 L10.9977251,27.0918594 L11.0034449,27.1331073 Z M11.278258,27.2099528 L11.2720182,27.255721 L11.319857,27.2780401 L11.3578161,27.2506357 L11.3471563,27.1930016 L11.3227169,27.185091 L11.278258,27.2099528 Z M3.88976276,27.2317068 L3.92512187,27.2026073 L3.89262268,27.1935666 L3.88976276,27.2317068 Z M11.1690608,27.2853856 L11.159701,27.3048795 L11.2023399,27.3616661 L11.1807605,27.3981112 L11.2083198,27.4512249 L11.2252194,27.4057392 L11.2543386,27.4503774 L11.2904777,27.5484118 L11.3359766,27.5464342 L11.3692558,27.6035032 L11.3453364,27.6501191 L11.3112772,27.6673528 L11.3227169,27.7063406 L11.3684758,27.6865642 L11.3801755,27.7396779 L11.4116347,27.7834685 L11.4984725,27.860879 L11.5398115,27.8549461 L11.5265518,27.7741454 L11.4995125,27.7611495 L11.4722132,27.7871413 L11.4495938,27.73318 L11.4885928,27.7391129 L11.4950926,27.7165113 L11.5528112,27.7583243 L11.5707507,27.7453283 L11.6097498,27.8125681 L11.6672083,27.7990071 L11.6705882,27.7605844 L11.6206695,27.6156516 L11.59831,27.5814667 L11.5808905,27.6046333 L11.561391,27.5594301 L11.5104322,27.5181822 L11.4901527,27.4656335 L11.4672733,27.4647859 L11.4527137,27.424103 L11.4079948,27.3842677 L11.2995775,27.3339791 L11.2561586,27.268717 L11.1690608,27.2853856 Z M7.23457914,27.3548856 L7.19896003,27.3249385 L7.19740006,27.3930258 L7.18128047,27.423538 L7.17634059,27.3774872 L7.14618135,27.3557331 L7.10536237,27.3862453 L7.10614235,27.4322961 L7.15684108,27.4433144 L7.10068248,27.4967107 L7.0960026,27.4532026 L7.04842379,27.4481172 L6.96912577,27.5071639 L6.94598635,27.600113 L6.98576536,27.6334504 L6.98862528,27.7148162 L7.02970426,27.7430682 L7.03152421,27.7718852 L7.07832304,27.7238568 L7.08950276,27.8134157 L7.12252194,27.7758405 L7.15346116,27.7670824 L7.19220019,27.6845865 L7.22963926,27.7142511 L7.24913877,27.6814788 L7.30841729,27.6585947 L7.3081573,27.5797716 L7.34845629,27.5984179 L7.36873578,27.5566049 L7.33935652,27.5063163 L7.41553461,27.535981 L7.45505362,27.4585704 L7.39291518,27.4687412 L7.39057524,27.3523429 L7.34039649,27.3119425 L7.31101722,27.3370868 L7.27253819,27.3373693 L7.24055899,27.3113775 L7.23457914,27.3548856 Z M-2.31051289e-13,27.3574283 L0.022359441,27.4450095 L0.111017225,27.4693062 L0.127136822,27.4322961 L0.101657459,27.3885055 L0.0132596685,27.3308714 L-2.31051289e-13,27.3574283 Z M11.6477088,27.600113 L11.6718882,27.6167817 L11.6708482,27.5427614 L11.6196295,27.5122493 L11.6477088,27.600113 Z M11.7020474,27.6102837 L11.7036074,27.6444687 L11.7574261,27.6328853 L11.7431264,27.5664931 L11.6887878,27.5461517 L11.7020474,27.6102837 Z M11.2746181,27.6088711 L11.2291193,27.5964402 L11.2636984,27.6376882 L11.3102372,27.6396658 L11.321937,27.5744037 L11.2915177,27.5684708 L11.2746181,27.6088711 Z M6.92934677,27.937442 L6.94234644,27.9507204 L6.98472538,27.8699197 L6.92934677,27.937442 Z M6.71407215,28.1837995 L6.72291193,28.2128991 L6.77699058,28.2253299 L6.78947026,28.1419865 L6.75671108,28.1374662 L6.71407215,28.1837995 Z M5.66551836,28.3018929 L5.67097823,28.3767607 L5.69541761,28.3490737 L5.72661683,28.3852363 L5.77003575,28.3411632 L5.77471563,28.2979376 L5.7359766,28.2936998 L5.67825804,28.2790088 L5.66551836,28.3018929 Z M5.83529412,28.3939944 L5.81475463,28.3809985 L5.77419565,28.4849659 L5.84491388,28.4216814 L5.86363341,28.338338 L5.83529412,28.3939944 Z M5.31894703,28.4143359 L5.33324667,28.4538887 L5.35950601,28.4355249 L5.35950601,28.4002099 L5.31894703,28.4143359 Z M4.59876503,28.5688744 L4.60292493,28.6174678 L4.63776406,28.6044719 L4.63022424,28.5564435 L4.59876503,28.5688744 Z M4.4999675,28.6022117 L4.50880728,28.6347015 L4.58056549,28.6047544 L4.53402665,28.5697219 L4.4999675,28.6022117 Z M5.21936952,28.6245308 L5.2560286,28.6324414 L5.2638284,28.6005166 L5.22118947,28.57848 L5.21936952,28.6245308 Z M4.29301267,28.6307463 L4.26077348,28.6717117 L4.28261293,28.7058966 L4.32993175,28.7248254 L4.32031199,28.7496872 L4.27871303,28.7200226 L4.24023399,28.7547726 L4.24621384,28.7954555 L4.18667533,28.8180571 L4.16457589,28.8070388 L4.08553786,28.831053 L4.11491713,28.873431 L4.18979526,28.8570448 L4.23295418,28.8282278 L4.28859279,28.8378335 L4.35879103,28.8132542 L4.37153071,28.7776567 L4.43470913,28.7660734 L4.47708807,28.7378214 L4.48124797,28.7067442 L4.38193045,28.7417766 L4.38297043,28.7296283 L4.46668833,28.6705816 L4.43704907,28.633854 L4.3881703,28.676797 L4.37959051,28.6194455 L4.29301267,28.6307463 Z M1.72661683,28.7770917 L1.77965551,28.739799 L1.76223594,28.6813174 L1.72713682,28.6643661 L1.72661683,28.7770917 Z M4.00441989,28.7366913 L3.96594085,28.7649433 L3.95450114,28.7954555 L3.85700357,28.8496993 L3.86454339,28.9307826 L3.90978226,28.9118537 L3.97556061,28.8437664 L4.07903802,28.809864 L4.07929802,28.7556201 L4.05667858,28.7307584 L4.00441989,28.7366913 Z M1.88963276,28.7878274 L1.87793305,28.8268152 L1.91719207,28.8220124 L1.95437114,28.7646608 L1.93721157,28.7375388 L1.88963276,28.7878274 Z M1.99831004,28.8166445 L1.97153071,28.8087339 L1.97153071,28.8915123 L2.05004875,28.8595875 L2.09736757,28.8852968 L2.11270718,28.8372684 L2.0721482,28.8296404 L2.03886903,28.8143843 L2.0521287,28.7734189 L2.01936952,28.7632482 L1.99831004,28.8166445 Z M2.59265518,28.7988457 L2.58303542,28.8358558 L2.49177771,28.8776688 L2.43977901,28.8542196 L2.41715957,28.8779513 L2.46291843,28.9078985 L2.56301592,28.8971627 L2.60565486,28.9078985 L2.6079948,28.8646729 L2.63373416,28.8756912 L2.65973351,28.8454615 L2.62723432,28.7940429 L2.59265518,28.7988457 Z M3.57283068,28.9008355 L3.57335067,28.9268273 L3.62950926,28.9392582 L3.62872928,28.8994229 L3.57283068,28.9008355 Z M3.37497563,28.9361505 L3.3721157,28.9751382 L3.41865453,28.9621423 L3.41293468,28.9217419 L3.37497563,28.9361505 Z M2.96834579,28.9330427 L2.95040624,28.9675102 L2.99408515,28.972313 L3.00162496,28.9271098 L2.96834579,28.9330427 Z M2.72265193,28.9872866 L2.82352941,29 L2.8240494,28.986439 L2.74319142,28.9627073 L2.71849204,28.9358679 L2.72265193,28.9872866 Z" id="Fill-1" fill="#FFFFFF"></path>
                <path d="M0.101399662,27.388353 L0.126879577,27.4321401 L0.11101963,27.4691473 L0.0223599255,27.4448525 L6.43374243e-13,27.3572783 L0.0132599558,27.3307236 L0.101399662,27.388353 Z M1.72717424,28.6638282 L1.76227413,28.6807781 L1.77943407,28.7395375 L1.72639425,28.7768272 L1.72717424,28.6638282 Z M1.93725354,28.7372775 L1.95415349,28.7643973 L1.91697361,28.8214617 L1.87771374,28.8265467 L1.8896737,28.787562 L1.93725354,28.7372775 Z M2.07219309,28.8293716 L2.11275296,28.8369991 L2.09741301,28.8847411 L2.05009317,28.8590339 L1.97131343,28.8912385 L1.97157343,28.8081843 L1.99835334,28.8160943 L2.01915327,28.7629848 L2.05217316,28.7731547 L2.0386532,28.8138343 L2.07219309,28.8293716 Z M2.58309139,28.8355866 L2.59271136,28.7982969 L2.62729124,28.793777 L2.66005113,28.8451915 L2.63353122,28.8754187 L2.60805131,28.8641188 L2.60545132,28.9076234 L2.56307146,28.8968885 L2.46271179,28.9076234 L2.41695194,28.8776787 L2.43983187,28.8539489 L2.49183169,28.8773962 L2.58309139,28.8355866 Z M2.71855094,28.9353081 L2.74299086,28.9624279 L2.82411059,28.9861576 L2.82359059,29 L2.72297092,28.9872876 L2.71855094,28.9353081 Z M3.00168999,28.9268332 L2.99415002,28.9720328 L2.95047017,28.9672303 L2.96841011,28.9327656 L3.00168999,28.9268332 Z M4.24994583,24.6099923 L4.36096546,24.7037814 L4.44494518,24.6746842 L4.47614508,24.6882441 L4.499545,24.7232737 L4.49694501,24.7724283 L4.55466482,24.8150854 L4.56948477,24.8441826 L4.6503445,24.8758223 L4.69714434,24.9049195 L4.65736448,24.9560515 L4.6201846,24.9328867 L4.57416475,24.9326042 L4.54660484,24.952944 L4.51358495,25.004076 L4.49434502,24.9430566 L4.46626511,24.8981396 L4.43428522,24.8842972 L4.42778524,24.8399451 L4.35940547,24.7659308 L4.32248559,24.7543484 L4.25462582,24.7811857 L4.21718594,24.746156 L4.21042597,24.693894 L4.24994583,24.6099923 Z M3.41300862,28.9214658 L3.4187286,28.9618629 L3.37218876,28.9748577 L3.37504875,28.9358731 L3.41300862,28.9214658 Z M3.92494692,27.2021873 L3.88958703,27.2315671 L3.89270702,27.1934299 L3.92494692,27.2021873 Z M3.6288079,28.8991485 L3.6295879,28.9389806 L3.57342809,28.9268332 L3.57290809,28.900561 L3.6288079,28.8991485 Z M3.85682714,28.849429 L3.95458682,28.7951895 L3.96602678,28.7643973 L4.00424665,28.73643 L4.05676648,28.7302151 L4.0791264,28.7553574 L4.0791264,28.8095968 L3.97538675,28.8434965 L3.90986697,28.9115784 L3.86436712,28.9305057 L3.85682714,28.849429 Z M4.43688521,28.633601 L4.46678511,28.6703257 L4.38306539,28.7293676 L4.38202539,28.741515 L4.48108506,28.7064853 L4.47692508,28.73756 L4.43480522,28.7658098 L4.37136543,28.7773921 L4.35888547,28.8129868 L4.2886857,28.8375641 L4.23304589,28.8279592 L4.18988603,28.8567739 L4.11526628,28.8731587 L4.08536638,28.8307841 L4.16466612,28.8067719 L4.18650604,28.8177893 L4.24630585,28.7951895 L4.24032587,28.7545099 L4.27880574,28.7197627 L4.3204056,28.7494249 L4.33002557,28.7242827 L4.28244573,28.7056378 L4.2608658,28.6714557 L4.29310569,28.6302111 L4.3796854,28.6191937 L4.38826537,28.6762581 L4.43688521,28.633601 Z M4.87082376,26.1428226 L4.91424362,26.1354776 L4.9186636,26.1659873 L4.95558348,26.1659873 L4.98626338,26.1990395 L4.97482342,26.3128859 L4.9501235,26.3450906 L4.90020367,26.3575205 L4.88330372,26.3950926 L4.82298392,26.3383107 L4.79074403,26.3326607 L4.73302422,26.2637314 L4.7096243,26.2586464 L4.67608441,26.2176843 L4.67270442,26.1623149 L4.69428435,26.1535574 L4.75772414,26.1809597 L4.79672401,26.14706 L4.8307839,26.14932 L4.84976383,26.1247427 L4.87082376,26.1428226 Z M4.58040473,28.6042213 L4.50890497,28.6344485 L4.500065,28.6019613 L4.53412489,28.5694742 L4.58040473,28.6042213 Z M4.63032457,28.5561968 L4.63786454,28.6042213 L4.60302466,28.6172162 L4.59860467,28.5686267 L4.63032457,28.5561968 Z M5.2210426,28.5782316 L5.26394245,28.6002664 L5.25588248,28.6321885 L5.2194826,28.6242786 L5.2210426,28.5782316 Z M5.7285609,24.9639614 L5.699441,25.0001211 L5.69606101,24.9642439 L5.7285609,24.9639614 Z M5.35936214,28.3999758 L5.35936214,28.4352879 L5.33336222,28.4539328 L5.31906227,28.4141006 L5.35936214,28.3999758 Z M5.73584088,28.2934743 L5.77484075,28.2974293 L5.76990077,28.3409339 L5.72674091,28.3850034 L5.69554101,28.3485613 L5.6711011,28.3765285 L5.66538112,28.3016667 L5.67838107,28.2787845 L5.73584088,28.2934743 Z M5.86376045,28.3381089 L5.84504052,28.4214456 L5.77432075,28.484725 L5.81488062,28.380766 L5.83542055,28.3937608 L5.86376045,28.3381089 Z M6.75659748,28.1372533 L6.78935737,28.1417733 L6.77687741,28.22511 L6.72305759,28.2126801 L6.71421762,28.1833004 L6.75659748,28.1372533 Z M6.98487672,27.8697284 L6.94249686,27.9505226 L6.9292369,27.9369628 L6.98487672,27.8697284 Z M7.10083633,27.4965495 L7.15673614,27.442875 L7.10629631,27.4321401 L7.10525632,27.3860931 L7.14633618,27.3555834 L7.17649608,27.3773356 L7.18143606,27.4233827 L7.19755601,27.392873 L7.198856,27.3247912 L7.23473588,27.3550184 L7.24071586,27.3112313 L7.27269576,27.3375035 L7.31091563,27.336656 L7.34055553,27.3117963 L7.39047537,27.3519109 L7.39307536,27.4685823 L7.45521515,27.4584124 L7.41569528,27.5358166 L7.33951553,27.5061544 L7.36889544,27.5564389 L7.34835551,27.5982485 L7.30831564,27.5796037 L7.30857564,27.6584204 L7.24929584,27.6813027 L7.2297959,27.7140724 L7.19235603,27.6841277 L7.15361615,27.7668994 L7.12267626,27.7756568 L7.08965637,27.8132289 L7.07847641,27.7233948 L7.03141656,27.7717018 L7.02985657,27.7426046 L6.9887767,27.7146374 L6.98565671,27.6332782 L6.94613685,27.5999435 L6.96901677,27.5067194 L7.0485765,27.44796 L7.09615635,27.4527624 L7.10083633,27.4965495 Z M7.29765567,27.2993664 L7.29713568,27.3174462 L7.2303159,27.291739 L7.27633575,27.1880625 L7.3192356,27.1787401 L7.34731551,27.0835385 L7.3811154,27.1663102 L7.40737531,27.136648 L7.46171513,27.1812825 L7.46327512,27.2454094 L7.38657538,27.2561443 L7.35277549,27.284959 L7.29765567,27.2993664 Z M7.87615375,22.3977562 L7.8907137,22.414141 L7.95779347,22.4237459 L7.99159336,22.4090561 L8.0389132,22.4034061 L8.09247303,22.4121635 L8.12159293,22.4000161 L8.15539282,22.4277009 L8.21337262,22.4556681 L8.28747238,22.4528431 L8.30411232,22.4285484 L8.35091216,22.4090561 L8.36755211,22.3774164 L8.41929194,22.3649865 L8.42163193,22.3839138 L8.45101183,22.368094 L8.5191316,22.3858913 L8.57061143,22.4268534 L8.61507128,22.4409782 L8.62755124,22.4604706 L8.66577111,22.4576456 L8.70763097,22.4864603 L8.71829094,22.5087776 L8.73675088,22.4842003 L8.76587078,22.4938052 L9.43120856,26.1405626 L9.51960827,26.1546874 L9.52402825,26.1176803 L9.61996793,26.1467775 L9.6592278,26.0727632 L9.76530745,26.040841 L9.76816744,26.149885 L9.80248733,26.1798297 L9.87164709,26.198757 L9.89712701,26.2507365 L10.1269662,26.40611 L10.186246,26.5278663 L10.210166,26.4823843 L10.2756857,26.3984826 L10.3191056,26.3832277 L10.3287256,26.3301182 L10.3089656,26.2617539 L10.3409455,26.2524315 L10.3326256,26.1880221 L10.3851454,26.1572299 L10.4535252,26.0792607 L10.5583048,26.14367 L10.5655848,26.201017 L10.5996447,26.2496065 L10.6493045,26.2473465 L10.7299042,26.3097784 L10.7322442,26.3343557 L10.7717641,26.3696679 L10.8596438,26.3948101 L11.0463232,26.5722184 L11.0816831,26.6236329 L11.1375829,26.6688325 L11.2340426,26.7758989 L11.3253022,26.8654506 L11.3185423,26.9194076 L11.3835421,26.9131926 L11.389522,26.9852294 L11.4464618,26.9934218 L11.4774017,27.0680011 L11.5249816,27.0448364 L11.6443212,27.0874934 L11.708281,27.0790185 L11.7509208,27.1033133 L11.7829007,27.1021833 L11.8047407,27.136083 L11.8702604,27.1211106 L11.9043203,27.1578353 L11.9045803,27.2533193 L11.9329202,27.3208362 L12,27.4239477 L11.98934,27.4620848 L11.9771201,27.5858186 L11.9339602,27.6883651 L11.9014603,27.6575729 L11.8793604,27.6804552 L11.8346406,27.6092659 L11.8297006,27.5750837 L11.7943407,27.544009 L11.8258006,27.4852496 L11.8083806,27.4764922 L11.7803007,27.5454215 L11.7444209,27.5219743 L11.7225809,27.5510715 L11.6141613,27.4999395 L11.6126013,27.3990879 L11.5712614,27.4493725 L11.5834814,27.4948545 L11.5322616,27.4753622 L11.5093816,27.4352476 L11.5226416,27.3764882 L11.4987217,27.3329836 L11.4727218,27.3860931 L11.407982,27.3151862 L11.389782,27.3408935 L11.3533822,27.2747891 L11.3767821,27.2165947 L11.412662,27.2033173 L11.3845821,27.1510553 L11.3806821,27.0719561 L11.3520822,27.084951 L11.2727824,27.0434239 L11.2077826,26.9849469 L11.091563,26.9657371 L11.0494432,26.8120586 L11.0125233,26.8044312 L11.0010833,26.7397393 L10.9631235,26.7335244 L10.8913637,26.66629 L10.8658838,26.6267404 L10.7806041,26.6394528 L10.6599645,26.5544211 L10.5505048,26.3018685 L10.5489448,26.3679729 L10.5713048,26.4205174 L10.6360445,26.514024 L10.6311046,26.5343638 L10.6784244,26.612898 L10.6883044,26.6705275 L10.6498245,26.670245 L10.6051046,26.614593 L10.5642848,26.6160055 L10.5169649,26.6493402 L10.494345,26.557811 L10.4423452,26.4917067 L10.4192053,26.5236289 L10.2847857,26.4775818 L10.2801057,26.5038541 L10.3495255,26.5103515 L10.4142653,26.5592235 L10.4337652,26.5558336 L10.4524852,26.6044231 L10.493565,26.6564026 L10.4379252,26.7095121 L10.3952853,26.6993422 L10.4075053,26.7524517 L10.3487455,26.7253319 L10.3250856,26.7007547 L10.2946657,26.7095121 L10.192486,26.6564026 L10.1155263,26.6058356 L10.1001863,26.566286 L10.0526065,26.516284 L9.94912684,26.4984866 L9.88724704,26.4665644 L9.78610738,26.4380322 L9.71668761,26.4024375 L9.71096763,26.3479156 L9.73046757,26.360628 L9.74398752,26.3224908 L9.70810764,26.2501715 L9.72448759,26.201582 L9.70862764,26.1840672 L9.68080773,26.2767263 L9.59838801,26.351588 L9.48398839,26.357238 L9.38206873,26.3267283 L9.37192876,26.2894386 L9.3295489,26.306671 L9.27858907,26.2885911 L9.17146943,26.2820937 L9.11062963,26.2911336 L8.97881007,26.3366157 L8.93279022,26.3603455 L8.86415045,26.3137334 L8.78485072,26.299326 L8.75677081,26.2679688 L8.74013087,26.2117519 L8.68865104,26.2230518 L8.67747108,26.2784212 L8.57685141,26.2216393 L8.55917147,26.1933896 L8.46999177,26.2626014 L8.4304719,26.3346382 L8.40473198,26.2741838 L8.42033193,26.2368941 L8.44893184,26.2419791 L8.53447155,26.1857621 L8.5188716,26.152145 L8.47831174,26.1744622 L8.45673181,26.1309577 L8.41773194,26.1295452 L8.36703211,26.0182413 L8.35507215,26.0490335 L8.30281232,26.0696558 L8.28409239,26.0572259 L8.26927244,26.095363 L8.20011267,26.0905606 L8.20037267,26.1318052 L8.15643281,26.1473425 L8.13329289,26.1337826 L8.14317286,26.0583559 L8.12341292,26.0625933 L8.098973,26.144235 L8.14369285,26.1657048 L8.15253282,26.2222043 L8.18347272,26.2812462 L8.17385275,26.3481981 L8.13745288,26.3295533 L8.1299129,26.3634529 L8.16475278,26.3733403 L8.1907527,26.4586545 L8.14343286,26.4804068 L8.11483295,26.4659994 L8.07401309,26.4939667 L8.05009317,26.4753218 L7.99393335,26.4823843 L7.99341336,26.4496146 L7.96767344,26.4736269 L7.95571348,26.5160015 L7.92945357,26.4815368 L7.90293366,26.5357763 L7.91723361,26.558941 L7.87693374,26.5922757 L7.83923387,26.5999031 L7.82597391,26.6419952 L7.78645405,26.6823923 L7.75707414,26.6705275 L7.72795424,26.7160095 L7.70273432,26.715162 L7.65333449,26.8075386 L7.59665468,26.817426 L7.57715474,26.7891763 L7.54387485,26.8391783 L7.4708151,26.8041487 L7.48537505,26.7355018 L7.53165489,26.7095121 L7.56233479,26.7131846 L7.57013477,26.6860648 L7.62265459,26.6315428 L7.62343459,26.5877558 L7.55401482,26.6504702 L7.49317502,26.617418 L7.48485505,26.5934057 L7.51267496,26.4914242 L7.5605148,26.4165624 L7.56597478,26.3580855 L7.58079473,26.3465031 L7.58417472,26.2818112 L7.55661481,26.2137294 L7.61641461,26.1843497 L7.72925424,26.0772832 L7.75863414,26.1157028 L7.79581401,26.1241777 L7.84651384,26.0781307 L7.78463405,26.0275637 L7.75941414,25.9877315 L7.71287429,25.9956415 L7.6795944,25.9767142 L7.67075443,25.995359 L7.61667461,26.0261512 L7.59405469,26.0820856 L7.53893487,26.097623 L7.48381505,26.1631624 L7.47913507,26.2058194 L7.43623521,26.2292667 L7.42739524,26.2755963 L7.39697534,26.304411 L7.38345539,26.3863352 L7.32339559,26.4400097 L7.35407549,26.4806893 L7.33041557,26.5431212 L7.27217576,26.5549861 L7.26801577,26.6340853 L7.21393595,26.6629 L7.19625601,26.6301304 L7.1697361,26.6922798 L7.13671621,26.6936922 L7.14295619,26.7386093 L7.07067643,26.7643166 L7.05637648,26.8843779 L7.1393162,26.8917228 L7.20561598,26.92421 L7.22459592,26.9626296 L7.19833601,27.0273215 L7.15413615,27.0665886 L7.11227629,27.0691311 L7.10785631,27.1044433 L7.0808164,27.1177207 L7.09355635,27.1615077 L7.06443645,27.2270471 L7.00359665,27.2875015 L6.96823677,27.287219 L6.93443689,27.3086888 L6.900897,27.3044513 L6.87515708,27.3281811 L6.88191706,27.3612333 L6.83433722,27.3773356 L6.82315726,27.4256427 L6.79091736,27.3931555 L6.75217749,27.4869446 L6.69159769,27.4790347 L6.69393769,27.5287542 L6.65831781,27.5140643 L6.63179789,27.5349691 L6.6297179,27.603051 L6.58421805,27.7067275 L6.51739828,27.7171799 L6.46097846,27.7618144 L6.4505785,27.7878042 L6.41755861,27.7485371 L6.35333882,27.8457161 L6.33773887,27.8166189 L6.30445899,27.8231163 L6.29379902,27.8796158 L6.25843914,27.8991081 L6.21735928,27.8878082 L6.18251939,27.9423302 L6.23763921,27.963235 L6.16899944,28.0858388 L5.98856004,28.1126761 L5.93084023,28.2191775 L5.92018027,28.1940353 L5.93240023,28.1245409 L5.89886034,28.1104161 L5.85232049,28.1327334 L5.84322052,28.1598531 L5.77094076,28.1985552 L5.73714088,28.2485572 L5.7309009,28.2101376 L5.70828097,28.2516647 L5.6703211,28.2191775 L5.58816137,28.276807 L5.53200156,28.268897 L5.54526152,28.2166351 L5.52550158,28.1643731 L5.49872167,28.2025102 L5.49612168,28.2460148 L5.40564198,28.3683361 L5.38302206,28.3324589 L5.3695021,28.381896 L5.31776227,28.3649461 L5.31932227,28.2858469 L5.28916237,28.2646596 L5.27408242,28.2917793 L5.29930234,28.3293515 L5.2790224,28.3816135 L5.23248256,28.4042132 L5.20882264,28.3383914 L5.17034277,28.329069 L5.1604628,28.3519512 L5.19530268,28.3912184 L5.11652294,28.4367004 L5.16254279,28.4598652 L5.1602028,28.4861375 L5.12354292,28.4598652 L5.06244313,28.5042173 L4.95740348,28.484725 L4.90124366,28.5107147 L4.89266369,28.5350095 L4.82766391,28.5556318 L4.78580405,28.5372695 L4.78242406,28.4604302 L4.8292239,28.4443279 L4.87550375,28.3629686 L4.9186636,28.3680536 L5.02058326,28.325114 L5.09598301,28.3347189 L5.11704294,28.3954558 L5.14460285,28.3581662 L5.14616285,28.3092942 L5.19166269,28.2943218 L5.23820254,28.3011017 L5.31386229,28.2070301 L5.39342202,28.122846 L5.49170169,28.0513741 L5.60064133,28.0284919 L5.64302119,28.0505267 L5.68722104,28.0313168 L5.69554101,28.0674765 L5.66772111,28.1044836 L5.69086103,28.1375358 L5.70308099,28.0900763 L5.75612081,28.0923363 L5.76886077,28.1239759 L5.79954067,28.1383833 L5.80474065,28.1010937 L5.75404082,28.0629565 L5.75118083,28.0406393 L5.79564068,27.9417652 L5.84790051,27.8889382 L5.91706028,27.8383712 L6.02261992,27.7968441 L6.10087966,27.7315872 L6.13363955,27.759837 L6.16353945,27.751362 L6.15417949,27.7055975 L6.16535945,27.6626579 L6.22697924,27.5748012 L6.30601898,27.5205618 L6.36997877,27.4457 L6.36945877,27.4019129 L6.43211856,27.0942734 L6.5088183,27.0143266 L6.50361832,26.9485048 L6.32421892,27.0329715 L6.2696191,27.0179991 L6.25869914,26.9773195 L6.22879924,26.9578272 L6.22177926,26.9134751 L6.19239936,26.9307075 L6.17003943,26.9973768 L6.19473935,27.084386 L6.15547948,27.1191331 L6.12427959,27.1030308 L6.07175976,26.9620647 L6.03457988,26.8905928 L6.01247996,26.8886154 L5.99428002,26.9380524 L5.97504008,26.9448323 L5.95034017,26.9007627 L5.91732028,26.8914403 L5.90744031,26.821946 L5.80032067,26.8872029 L5.70386099,26.93099 L5.69372102,26.9603697 L5.61728128,26.9973768 L5.58608138,26.9518947 L5.62404125,26.9078252 L5.62508125,26.7928488 L5.61468128,26.6705275 L5.66668111,26.6270229 L5.6388612,26.5219339 L5.61286129,26.4609145 L5.59596135,26.3741878 L5.56190146,26.3340732 L5.54318152,26.40498 L5.49456168,26.4126074 L5.41396195,26.4473546 L5.32192226,26.4538521 L5.27382242,26.4411397 L5.23560255,26.4103475 L5.23950253,26.3470681 L5.20674264,26.3219258 L5.16332279,26.2244643 L5.11886294,26.199322 L5.07960307,26.094798 L5.12276292,26.0583559 L5.14330286,25.9795391 L5.11288296,25.9911215 L5.11626295,25.941402 L5.13602288,25.9018524 L5.10664298,25.8591953 L5.09650301,25.8967674 L5.05620315,25.8744501 L5.06140313,25.8063683 L5.02968323,25.7916784 L5.01954327,25.7425239 L5.02968323,25.6865895 L4.99250336,25.7052343 L4.99588335,25.6504298 L5.03800321,25.6461923 L5.01564328,25.578958 L5.07440309,25.5854554 L5.08636305,25.5125711 L5.10794297,25.4662416 L5.23898254,25.3281004 L5.26810244,25.2840308 L5.28240239,25.2953307 L5.28292239,25.2278139 L5.3396022,25.1196174 L5.38068206,25.0800678 L5.44672184,25.0715929 L5.49300169,25.0989951 L5.55280149,25.1792243 L5.59856134,25.1778119 L5.6690211,25.1193349 L5.74442085,25.0258283 L5.77744074,25.0193309 L5.78290072,25.0470156 L5.85908047,25.0566205 L5.92902024,25.0433432 L5.99922,24.9427741 L6.00181999,24.9162194 L5.98206006,24.8139554 L5.98388005,24.7543484 L5.94436019,24.6865491 L5.93292022,24.6289196 L5.97764007,24.6501069 L6.02547992,24.6094273 L6.03249989,24.5662053 L5.98440005,24.4791961 L5.93656021,24.5379555 L5.89834034,24.5224182 L5.85804047,24.5526454 L5.81488062,24.5554704 L5.80188066,24.5780701 L5.75040083,24.6051899 L5.7285609,24.6619718 L5.70152099,24.6825941 L5.698921,24.6111223 L5.6713611,24.5924775 L5.64406119,24.643327 L5.63574121,24.6153598 L5.58660138,24.5684652 L5.47636175,24.5515154 L5.39186203,24.5811776 L5.36066213,24.5828726 L5.30060233,24.5447355 L5.18490272,24.4913435 L5.15786281,24.4611163 L5.15006283,24.4201542 L5.17086276,24.3690222 L5.13602288,24.3147827 L5.15344282,24.2667581 L5.18412272,24.2472658 L5.18646271,24.182574 L5.14486285,24.1738165 L5.11340296,24.1498043 L5.04840317,24.121837 L5.01954327,24.0820049 L4.97144343,24.0376529 L4.97456342,23.9961258 L5.0686831,23.9622261 L5.1901027,23.8949917 L5.27200243,23.8568546 L5.3089223,23.8949917 L5.35052216,23.9093991 L5.36690211,23.868437 L5.34194219,23.8574196 L5.34610218,23.8201299 L5.45634181,23.7800153 L5.57646141,23.7548731 L5.63808121,23.7602405 L5.6698011,23.7814278 L5.64328119,23.8430122 L5.64328119,23.8893418 L5.62586125,23.9192865 L5.6406812,23.9743735 L5.68202106,23.972396 L5.73220089,23.9884983 L5.79226069,23.9865208 L5.80734064,24.0079906 L5.84556051,24.018443 L5.88196039,24.0037532 L5.92382025,24.0311554 L5.97608008,23.9503612 L6.00753997,23.9492312 L6.02651991,23.9698535 L6.04185986,23.920699 L5.98596005,23.8896243 L5.92772024,23.9014892 L5.9402002,23.8376448 L5.90432032,23.7636305 L5.85934047,23.7356633 L5.85284049,23.6701239 L5.89132036,23.661084 L5.93136023,23.7294483 L5.91706028,23.7774729 L5.93604021,23.8201299 L5.98154006,23.8721094 L5.99818001,23.8254974 L5.94774017,23.7560031 L5.98414005,23.6466766 L5.96698011,23.6249243 L5.9087403,23.6415917 L5.85258049,23.6263368 L5.84634051,23.605997 L5.81514062,23.6209694 L5.70178099,23.5562775 L5.70594098,23.5057105 L5.68618105,23.3907341 L5.66330112,23.3455345 L5.62352125,23.3031599 L5.54760151,23.193551 L5.51250162,23.1491989 L5.47298176,23.1330966 L5.42280192,23.0571048 L5.3700221,23.0082328 L5.3697621,22.9949554 L5.41682194,22.985068 L5.44672184,22.9291335 L5.46882177,22.8104847 L5.58400139,22.8426894 L5.7298609,22.8395819 L5.76990077,22.8243271 L5.83568055,22.7746075 L5.90276032,22.6907058 L5.92564025,22.6014367 L5.95892014,22.5257274 L6.01403995,22.466403 L6.04003987,22.4195085 L6.10633965,22.3491666 L6.11283962,22.3717664 L6.16041947,22.3836313 L6.23425922,22.3517091 L6.28209906,22.3138545 L6.39701868,22.1918157 L6.43653854,22.1895557 L6.43939854,22.2087655 L6.4802184,22.1969006 L6.51843827,22.204528 L6.59669801,22.1923806 L6.67443775,22.1401186 L6.75347749,22.0245773 L6.78441739,22 L6.78857737,22.0214698 L6.900637,22.0748618 L6.90895697,22.1081965 L6.86839711,22.1519835 L6.85071716,22.153961 L6.84941717,22.2141329 L6.90765697,22.1957706 L6.91181696,22.1638484 L6.93859687,22.1347512 L6.94691684,22.151701 L6.96745678,22.0844667 L7.02335659,22.1468986 L7.01373662,22.1940756 L7.0493565,22.207353 L7.07015643,22.2347552 L7.10135633,22.1898382 L7.15595615,22.1870132 L7.18637605,22.1726058 L7.26593578,22.1853182 L7.30649565,22.2019856 L7.2890757,22.2937972 L7.36473545,22.315267 L7.37071543,22.3387142 L7.44559518,22.3760039 L7.44585518,22.3570766 L7.49759501,22.3282618 L7.54803484,22.3279793 L7.54959483,22.3491666 L7.57897474,22.3497316 L7.60835464,22.3180919 L7.65879447,22.309617 L7.69467435,22.3200694 L7.74563418,22.3480366 L7.76799411,22.3401267 L7.80361399,22.3810888 L7.82051393,22.3627265 L7.85223383,22.3728964 L7.87615375,22.3977562 Z M8.24691251,26.2199443 L8.24405252,26.303281 L8.22611258,26.3905727 L8.18815271,26.3662779 L8.20921264,26.2651439 L8.24691251,26.2199443 Z M8.34753217,26.3603455 L8.2804524,26.4691069 L8.27785241,26.508374 L8.21753261,26.5414262 L8.22611258,26.4795593 L8.28695238,26.40837 L8.32205226,26.3349207 L8.34753217,26.3603455 Z M10.4665251,26.7374793 L10.5234649,26.7216595 L10.5515448,26.6778724 L10.6162846,26.7072521 L10.6006847,26.766294 L10.6162846,26.7829614 L10.6274646,26.7177045 L10.6968843,26.7160095 L10.7429042,26.7468017 L10.7434242,26.8290084 L10.7618841,26.8307034 L10.810504,26.9239275 L10.7650041,26.9550022 L10.6513845,26.9021752 L10.6768644,26.9849469 L10.6565845,27.0278865 L10.6178446,27.0233666 L10.5840447,26.977037 L10.5356849,26.9524597 L10.487065,26.8874854 L10.4400052,26.8648856 L10.4275252,26.8030187 L10.4478052,26.7744865 L10.4423452,26.7193995 L10.4665251,26.7374793 Z M10.6316246,27.0507688 L10.6591845,27.0422939 L10.7052043,27.1035958 L10.7052043,27.1555753 L10.6649045,27.1793051 L10.6513845,27.1013358 L10.6316246,27.0507688 Z M10.7553841,26.6403003 L10.8258439,26.6487752 L10.8612038,26.6332378 L10.8677038,26.6629 L10.9503835,26.7493442 L10.9090436,26.7453892 L10.9093036,26.7835264 L10.9652034,26.8244885 L11.0052433,26.9163001 L10.9717034,26.9555672 L10.9680634,26.9937043 L10.9212636,27.0841035 L10.9015037,27.0894709 L10.8729038,27.0177166 L10.8742038,26.9702571 L10.8500238,26.9072602 L10.805044,26.8343759 L10.798024,26.7911538 L10.7548642,26.6934097 L10.7187243,26.6572501 L10.6911644,26.5835183 L10.7553841,26.6403003 Z M10.9743034,27.3781831 L10.9797634,27.4233827 L10.9464835,27.4075629 L10.8279239,27.2609468 L10.7689041,27.2239396 L10.7746241,27.1793051 L10.7312042,27.0880584 L10.6610045,27.026474 L10.6916844,26.9349449 L10.7228843,26.9592397 L10.7738441,26.9696921 L10.814924,26.9617822 L10.8331239,27.0216716 L10.9275036,27.2086848 L10.9743034,27.3781831 Z M11.0541232,27.2694217 L11.0195433,27.2482344 L10.9730034,27.1951249 L10.9568835,27.1485129 L10.9727434,27.1177207 L11.0036833,27.1329755 L10.9977033,27.0917309 L11.092603,27.1346705 L11.1201629,27.1987974 L11.095463,27.2163122 L11.100663,27.2971064 L11.1258829,27.3112313 L11.1274429,27.4072804 L11.092083,27.3990879 L11.103523,27.4536099 L11.0767431,27.4332701 L11.0346232,27.3307236 L11.0541232,27.2694217 Z M11.0447632,27.0846685 L11.0070633,27.0555712 L11.0312432,27.0208241 L11.1446029,27.0199766 L11.1895827,27.0027443 L11.2428825,27.0617862 L11.3201023,27.0976633 L11.3273822,27.1437104 L11.3029423,27.1781751 L11.2566625,27.18326 L11.2343026,27.2216796 L11.1867227,27.2191372 L11.1456428,27.2524719 L11.110283,27.1654627 L11.096763,27.1050083 L11.0624431,27.1157432 L11.0447632,27.0846685 Z M11.2293626,27.5959885 L11.2748624,27.6084184 L11.2915024,27.5683038 L11.3219223,27.5742362 L11.3104823,27.6392106 L11.2639425,27.6375156 L11.2293626,27.5959885 Z M11.1690428,27.284959 L11.2561425,27.2688567 L11.2998223,27.3335486 L11.407982,27.3841156 L11.4529618,27.4239477 L11.4675218,27.4646273 L11.4901417,27.4654748 L11.5106816,27.5180193 L11.5616415,27.5592639 L11.5811414,27.6044635 L11.5985613,27.5812987 L11.6206613,27.6151984 L11.6708411,27.760402 L11.6674611,27.7988216 L11.6097413,27.8126639 L11.5710014,27.7451471 L11.5530615,27.7578595 L11.4956017,27.7163324 L11.4888417,27.7392147 L11.4495818,27.7327172 L11.4724618,27.7872392 L11.4997617,27.7606845 L11.5265416,27.7739618 L11.5398015,27.854756 L11.4987217,27.860406 L11.411882,27.7830017 L11.3801621,27.7394972 L11.3684621,27.6863877 L11.3229623,27.7061625 L11.3112623,27.6668954 L11.3453222,27.6499455 L11.3695021,27.6033335 L11.3359622,27.546269 L11.2907224,27.5482465 L11.2545825,27.4502199 L11.2254626,27.4055854 L11.2083026,27.4507849 L11.1810027,27.3979579 L11.2023227,27.3612333 L11.1599428,27.3047338 L11.1690428,27.284959 Z M11.2785024,27.2098148 L11.3229623,27.184955 L11.3474022,27.1928649 L11.3578021,27.2502119 L11.3201023,27.2778966 L11.2722624,27.2552968 L11.2785024,27.2098148 Z M11.6198813,27.5118044 L11.6711011,27.5425966 L11.6721411,27.6166108 L11.6479612,27.5999435 L11.6198813,27.5118044 Z M11.702301,27.6101134 L11.688781,27.5459865 L11.7433809,27.5663263 L11.7576808,27.6327132 L11.703861,27.6442956 L11.702301,27.6101134 Z" id="Stroke-2" stroke="#D8D8D8" stroke-width="0.5"></path>
                <path d="M16.0393952,24.0888215 L16,24.290413 L16.3186222,24.4304661 L16.4370741,24.3213338 L16.471678,24.1412656 L16.4160456,24.0157635 L16.2986584,24 L16.0393952,24.0888215 Z M17.6444847,24.7869648 L17.5172487,24.793634 L17.6575277,25.1331565 L17.8744676,25.1082986 L17.9269059,24.9427814 L17.8193675,24.6550966 L17.6444847,24.7869648 Z M18.4640652,25.3753695 L18.695379,25.3756726 L18.7943995,25.2501705 L18.5348701,25.2356196 L18.4640652,25.3753695 Z M19.0829429,25.6006063 L19.1492227,25.7218643 L19.3193143,25.7658204 L19.3339544,25.980144 L19.4050256,26.0131868 L19.7361584,25.9270936 L19.7827406,25.7533914 L19.4561329,25.5590754 L19.3097317,25.633346 L19.1912798,25.4675256 L19.0829429,25.6006063 Z M19.8897466,26.5397499 L19.9661414,26.6758621 L19.8673871,26.890792 L19.7252449,27.0469117 L19.9075809,27.5122395 L19.8753727,27.7865858 L19.9139693,27.8935961 L20.1620528,28 L20.2847636,27.7693066 L20.5075596,27.6086396 L20.8256495,27.5061766 L21,27.289731 L20.7085285,27.0332702 L20.7071976,26.874119 L20.5115524,26.6873816 L20.1979876,26.5636984 L19.9129046,26.3915119 L19.8897466,26.5397499 Z" id="Fill-4" fill="#FFFFFF"></path>
                <path d="M16.2989087,24 L16.4162896,24.0160667 L16.4716529,24.1415688 L16.437317,24.3213338 L16.3188714,24.4304661 L16,24.2907162 L16.0396593,24.0888215 L16.2989087,24 Z M17.8195369,24.6553998 L17.9270695,24.9430845 L17.874634,25.1086017 L17.6577056,25.1334596 L17.5174341,24.7939371 L17.6446633,24.7872679 L17.8195369,24.6553998 Z M18.7945169,25.2504737 L18.6955017,25.3759757 L18.4642002,25.3756726 L18.5350013,25.2356196 L18.7945169,25.2504737 Z M19.1913761,25.4678287 L19.3098217,25.633346 L19.4562151,25.5593786 L19.7828054,25.7536946 L19.7359595,25.9273967 L19.4051105,26.01349 L19.3340431,25.9804471 L19.3194038,25.7661235 L19.1493213,25.7221675 L19.0827788,25.6006063 L19.1913761,25.4678287 Z M20.1620974,28 L19.9140271,27.8938992 L19.8754325,27.786889 L19.9076391,27.5125426 L19.7255789,27.0472149 L19.8674474,26.8910951 L19.9661964,26.6761652 L19.8898057,26.5397499 L19.9129625,26.3918151 L20.1980303,26.5640015 L20.5115784,26.6873816 L20.7074794,26.8744221 L20.7085441,27.0335733 L21,27.289731 L20.8256588,27.5061766 L20.5075858,27.6086396 L20.2848017,27.7696097 L20.1620974,28 Z" id="Stroke-5" stroke="#D8D8D8" stroke-width="0.5"></path>
                <polygon id="Fill-7" fill="#FFFFFF" points="7.85295687 0.105851414 7.91987097 0.254747264 8.02347989 0.311598407 8.02428934 0.482422555 7.9530582 0.608848668 7.96843765 0.817844297 7.92661634 0.990292764 7.9911021 1.11482384 7.8081676 1.31867579 7.72155701 1.54716324 7.7231759 1.80786634 7.64519939 1.81652937 7.67460922 1.52333991 7.74637998 1.20876358 7.65788069 1.20389063 7.60445734 0.942104653 7.43879099 0.896894458 7.3756543 0.782380013 7.17626108 0.778319217 6.99710399 0.670031326 6.79932966 0.613450903 6.55002069 0.396333681 6.43939657 0.255559423 6.30098153 0.435858762 6.26239799 0.757473798 6.35332562 0.95455776 6.31123449 1.37552694 6.34442173 1.4683838 6.27049244 2.05963569 6.35251617 2.32277526 6.23622595 2.36690258 6.16499481 2.50415748 6.27346041 2.63383223 6.39973378 2.60648954 6.52034105 2.68391538 6.1828026 2.75132459 6.09511275 2.91862938 6.04276866 3.22779131 5.8533586 3.75542406 5.66259946 4.12414433 5.639935 4.24921685 5.28674729 5.11091774 5.15723614 5.35997989 4.95649385 5.62555594 4.81726935 5.88923696 4.68991672 6.03813281 4.73605507 6.25497931 4.64917467 6.48617396 4.6062741 6.84325328 4.67723542 6.99756352 4.57443594 7.21738794 4.63622355 7.31322272 4.61409873 7.62076034 4.4451946 7.91476196 4.44465497 8.04741463 4.36074253 8.19279112 4.02212482 8.59210272 4 8.79541323 4.15055672 9.01632053 4.26630731 9.36960978 4.24849953 9.6855397 4.1411132 9.86638048 4.14435098 10.2516146 4.08310299 10.3206482 4.23905601 10.6644622 4.28519436 10.827977 4.41254699 10.9982597 4.48081016 11.2310786 4.43844922 11.4904281 4.59143428 11.6918436 4.76438563 11.6964458 4.82995065 11.5099199 4.91062531 11.4877209 4.86124918 11.8948834 4.7077245 11.8507561 4.62785929 12.1306803 4.67669579 12.3255985 4.62462151 12.4501296 4.65672948 12.6017326 4.79946157 12.8231813 4.94947866 12.8410488 5.01801164 13.0616854 4.89929308 13.2473992 4.84506029 13.2008354 4.78111416 13.5514174 4.89821383 13.722783 5.10192408 14.2474378 5.11001853 14.3746761 5.19770837 14.4434389 5.28620766 14.668407 5.36715213 14.7006227 5.31696656 14.9190935 5.49882181 15.1372936 5.41113196 15.3387091 5.45106457 15.397726 5.34071027 15.6863132 5.45295327 15.8647175 5.74678171 15.9107398 5.95885622 16.0417682 6.23136928 16.1045752 6.43453991 16.3243996 6.45504584 16.4673396 6.77882373 16.7126117 6.99359639 16.7169432 7.09234865 16.9708783 7.05106697 17.0707739 7.17194405 17.1446804 7.25693574 17.0962215 7.54914529 17.4189194 7.76580666 17.739993 7.84675113 17.9568395 7.85322669 18.2356809 7.80627889 18.4609197 7.88317614 18.6252465 8.86314388 18.7427389 10.0665184 18.8870325 9.93457888 19.1120006 12.0909396 20.3965657 13.0957303 20.9791546 14.9496286 21.2561009 15.7194105 21.3595158 15.782817 20.8643694 17.3204921 21.0498124 17.4470353 21.1242604 17.5749276 21.4293615 17.795906 21.5666164 17.9416061 21.7991646 18.0883854 21.9044746 18.2540517 22.1751943 18.5972563 22.3923116 18.6900726 22.5276714 18.7065313 22.7296283 18.8433275 22.9689446 18.830916 23.2510345 18.9615064 23.5758982 19.1746602 23.7312913 19.2771898 23.8866845 19.8405634 24.2023437 20.0634305 24.3858916 20.2193835 24.3945547 20.3642741 24.1893491 20.4225541 24.1869126 20.5504464 23.8311869 20.739047 23.6151526 20.9667708 23.5943072 21.0226225 23.4849364 21.2247138 23.5813126 21.476721 23.5875392 21.8838717 23.6646943 22.0163508 23.91132 22.198206 24.0041768 22.2373292 24.1024481 22.4345639 24.2521561 22.5470767 24.413505 22.5767563 24.6303515 22.6892692 24.8975519 22.7791175 24.9909502 22.86303 25.3225819 23.0635024 25.4804115 23.2002986 25.6647716 23.2421199 25.8645628 23.3986126 26.0261825 23.5024913 26.0464864 23.6185117 26.2259736 23.5855943 26.3764938 23.6562858 26.5603125 23.6322723 26.7243686 23.7990179 26.9279499 23.8796925 27.2568743 24.0132509 27.3960243 24.2188499 27.4517926 24.3667084 27.5974398 24.5644828 27.6193681 24.8232353 27.8064354 25.132713 27.7999381 25.3628651 27.8567893 25.485361 28 25.7875537 27.892795 25.7071489 27.7076227 25.6823259 27.5005221 25.5735905 27.3868198 25.5509261 27.0608733 25.4651249 26.9704529 25.4724099 26.8093746 25.5457996 26.7971922 25.604889 26.5148316 25.4904875 26.549213 25.5201672 26.4046486 25.6243157 26.4357814 25.7751423 26.0456743 26.0012471 25.6753297 26.2197972 25.4725606 26.2483976 25.2779131 26.4189206 25.3320571 26.603474 25.2435317 26.3538952 24.9611711 26.421349 24.9316626 26.5325127 25.071354 26.7704894 25.0226244 26.7748065 25.08868 26.9453295 25.0161272 27.0036095 25.0659396 27.580204 24.7762695 27.8637794 24.5058205 28.039429 24.2884325 28.0191928 24.0867463 27.92125 24.0212322 27.9681978 23.8650269 28.0526499 23.8939939 28.174876 23.7662142 28.2083331 23.9448892 28.3869506 24.0285416 28.8758552 23.8701706 29.0307289 23.8601539 29.0960241 23.8157559 29.6073234 23.7491588 29.8482681 23.8081757 30.1898538 23.9457014 30.4793652 23.9814364 30.6614902 23.8777507 30.6266841 23.7800209 30.8641212 23.6370809 30.874644 23.7759601 31.1250322 23.7348107 31.2151504 23.9562594 31.298793 23.9359554 31.5173431 24.0445141 31.6509015 24.3063 31.7758258 24.3098194 31.9371751 24.4037591 32.0815261 24.3493445 32.1473609 24.1763546 32.3656412 24.170128 32.4684406 24.326604 32.5914762 24.2924933 32.6624376 24.1454925 32.6395033 23.9906408 32.8084074 23.9202537 32.8202793 24.1051553 33.173467 24.1844762 33.3291502 24.3663998 33.4961656 24.387516 33.6337712 24.1915149 33.5479701 24.1747302 33.434378 24.0233979 33.1429779 24.0006575 32.9522188 23.8742313 33.0129271 23.7172139 32.9794701 23.6165062 33.1950522 23.6549484 33.3056763 23.5875392 33.3091839 23.4508257 33.1035849 23.2889353 33.0185932 23.470859 32.7846637 23.4131957 32.7997734 23.3059906 33.0663505 23.1348958 33.1578177 23.0520555 33.4643275 22.9039718 33.6842266 22.8408941 33.7816298 22.9034304 34.0112423 22.9123642 34.107836 22.8544301 34.352828 22.8877287 34.367398 22.6898325 34.43728 22.4773176 34.5101301 22.5043895 34.5589665 22.770507 34.8107039 22.9283366 34.9345489 22.8809607 35.4936054 22.7252968 35.7491201 22.676838 36.0629148 22.6819817 36.4263555 22.7807944 36.9479077 23.0509727 37.0601507 23.1817303 37.0647376 23.3013884 37.4726977 23.2074487 37.8388366 22.9562208 37.947572 22.9730054 37.9097979 22.8103028 38.2136095 22.7187996 38.6029524 22.9093862 38.7224804 23.0742546 38.8487538 23.1175697 38.8835599 23.2770236 39.0646057 23.3595931 39.3112165 23.5899756 39.4973888 23.6008044 39.5551292 23.7564683 39.6867989 23.8582589 39.7248428 24.3539467 39.6417398 24.9663147 39.7968833 25.1609622 39.90373 25.0090884 40.0880136 24.9560274 39.8573219 25.4289747 40.000054 25.5586495 40.3912856 26.0976525 40.4857208 26.0472986 40.4385032 25.9143752 40.5580312 25.9400936 40.5596501 26.1726418 40.6333095 26.3247863 40.8693976 26.535677 40.9336135 26.748192 41.0922647 26.9934641 41.2290609 26.9060216 41.4163124 26.9666628 41.7104107 27.4052288 41.6904444 27.5776772 41.7999892 27.6729706 42.1056895 27.5738871 42.2767521 27.4631628 42.3582362 27.4994392 42.5139195 27.2677031 42.4672415 27.1859458 42.5182365 26.8979 42.606466 26.8629771 42.5627559 25.9641876 42.5257913 25.7170205 42.4310863 25.4855552 42.024745 24.7648993 41.7835305 24.413505 41.7052842 24.0748347 41.7589773 24.0122984 41.2247438 23.3414549 40.844035 22.6938933 40.6451814 22.1876474 40.5164797 21.7271532 40.4843717 21.2609738 40.5752993 21.1662219 40.5572217 20.9940442 40.6252151 20.8115791 40.6387058 20.617473 40.8016741 20.2138299 40.9673404 19.9474417 41.1392125 19.8280543 41.1478466 19.7487334 41.3224168 19.5473179 41.4972569 19.4533782 41.5887241 19.2790347 41.7778644 19.097111 41.7975609 18.9617512 41.9983032 18.9265576 42.1172915 18.7221642 42.1143236 18.4888038 42.2511197 18.1761225 42.4135483 17.9627954 42.55682 17.8818502 42.8611712 17.7497389 43.0619135 17.7930541 43.1191143 17.4248753 43.3082545 17.105426 43.565658 16.8395792 43.7442754 16.7353521 44.0151696 16.6489925 44.1773284 16.6527826 44.3014432 16.3124879 44.1927078 16.297869 44.0332472 16.1400394 44.04377 15.9467456 44.3278851 15.8763584 44.4889646 15.5650307 44.5866376 15.5301079 44.6120002 15.394748 44.5002968 15.1486638 44.3567553 15.2206753 44.2520671 15.1405422 44.0030279 15.2480179 43.9612066 15.2087636 43.7402282 15.309742 43.7118976 15.2333991 43.9004983 15.1770894 43.9320666 15.1091387 44.2059287 14.9827126 44.2307517 14.9228836 44.4749342 14.9144912 44.2866034 14.5035387 44.0939555 14.1242604 43.6730443 14.1824651 43.4936174 14.0901497 43.5208687 14.0227405 43.7342923 14.1594539 43.8214425 14.0043315 43.6978673 13.9447732 43.6849161 13.8039989 43.775574 13.6686391 43.628255 13.4534169 43.6703461 13.1299068 43.4099748 13.0305527 43.2996205 12.9100824 42.99419 12.9011486 42.9162135 12.7360096 42.7022503 12.8166841 42.6450495 12.7121863 42.676348 12.5454229 42.7678153 12.4793673 42.6766178 12.6683297 42.7610699 12.7879878 42.8970566 12.6612909 43.011728 12.8085625 43.3009695 12.8378002 43.5268046 12.9685578 43.5473105 12.8719109 43.4499074 12.7555014 43.4380355 12.6212244 43.2942242 12.4736822 43.204106 12.2327416 43.2542916 12.0684147 43.2051852 11.7538384 43.2402612 11.6168542 43.4253542 11.4341184 43.4070068 11.328267 43.5049496 11.2833275 43.5297726 11.4936768 43.3962142 11.5597324 43.3500758 11.7782032 43.4952363 12.1065862 43.4623188 12.2162277 43.5081874 12.4731407 43.4539546 12.484511 43.5564843 12.6648103 43.7310545 12.6480257 43.7572265 12.5605832 43.9188457 12.7105619 43.8422182 12.8091039 43.9231627 12.8637893 43.957699 13.0446301 44.1260635 12.9566462 43.9900768 13.4244499 43.989807 13.770159 44.0645457 13.9079553 44.192438 13.7950652 44.2779693 13.3548749 44.2946978 13.0944425 44.3934501 13.0040221 44.4619831 12.7969215 44.5235009 12.3066481 44.4058616 11.9419886 44.319251 11.9509224 44.0853215 11.7118769 43.9968222 11.453881 43.8397899 11.3204161 43.7839382 11.1544649 43.855709 11.0637738 43.8227916 11.1322659 43.8316955 11.1544649 43.8856584 11.3103995 44.2269743 11.4814944 44.4832985 11.5164172 44.5998585 11.6753297 44.6840407 11.3745601 44.8194878 11.2126697 44.973822 10.7232084 44.9365875 10.1241057 44.8888303 10.0047183 44.6524724 9.97466837 44.682152 9.79599335 44.7960139 9.69366129 44.9079871 9.85257377 45.0226585 9.77027497 45.1969589 9.73860077 45.4430301 9.63085431 45.9948016 9.2450787 46.2470785 9.0117183 46.1081238 8.99222648 46.0584779 8.87365124 45.8607036 9.10322156 45.7217489 9.17604517 45.4325073 9.2477859 45.3780047 9.3300847 45.0191509 9.32412886 45.2115289 9.14707816 45.3931143 9.05449201 45.5347671 8.86471748 45.9494727 8.78431373 46.271092 8.61538462 46.3450213 8.61348958 46.6291364 8.48381483 46.5959492 8.2542445 46.6345327 8.0744866 46.734634 8.06853077 46.762425 8.09912209 46.7276189 8.3365433 46.8752076 8.27292416 47.0095754 8.18818889 46.9923073 8.10995088 47.1123749 8.04606103 47.2197612 8.12402831 47.3533196 8.08044243 47.6900486 7.85141354 47.7032696 7.68816955 47.4801326 7.85791082 47.2370294 7.81459566 47.1927798 7.69520826 47.0996936 7.68275515 47.0810764 7.54252233 46.9340273 7.40283095 46.7581079 7.42638357 46.7173659 7.26124454 46.8026274 7.08960823 46.7942631 6.92934215 46.715747 6.75391577 46.7513626 6.53003055 46.7864385 6.2233051 46.8951739 6.06195614 46.8749378 5.96043625 46.9874506 5.88409328 46.9094741 5.78149051 47.0281927 5.55164946 47.0956464 5.65695943 47.2149046 5.64748424 47.2793903 5.51131222 47.3902843 5.45906331 47.4337245 5.30475306 47.5869793 5.30881386 47.6913977 5.14313339 47.6520047 5.08574081 47.6900486 4.82503771 47.6398631 4.71864485 47.7421229 4.65394284 47.7906896 4.80608733 47.982528 4.74896546 48.0462043 4.65719148 48.1233714 4.77630816 48.2739281 4.64419693 48.1848892 4.48717949 48.2650242 4.47689214 48.3643161 4.61685424 48.5181106 4.32312333 48.6570653 4.29415632 48.6406065 4.19155354 48.7531194 4.18803419 48.7903538 4.05105001 48.8998987 4.08624357 49 3.8739993 48.753659 3.5445334 48.6260365 3.61925204 48.4744006 3.49282593 48.4946367 3.37533357 48.3934561 3.2784159 48.3948052 3.14982403 48.1193241 3.15144835 48.0513308 2.86773408 47.6849221 1.70174421 47.5268106 1.60157791 47.2801998 1.49410218 47.1995251 1.60076575 47.0562534 1.64381019 46.8592885 1.82573384 46.7456965 1.78350157 46.6828296 1.59264416 46.5427956 1.59562208 46.217129 2.55640639 46.2584107 2.86042464 46.1718001 2.98441428 46.1761172 3.27814518 46.2613787 3.45357157 46.1712605 3.581622 46.212812 3.63901458 46.1102823 3.74973895 46.0333851 3.94249139 46.1059653 4.00529837 45.8269767 4.23568086 45.8059311 4.31012879 45.6286627 4.32637197 45.5954755 4.62362223 44.9994544 4.79228062 44.2240063 4.97203852 43.6314928 5.14096763 43.1161463 5.22949298 42.8147631 5.48451096 42.5287593 5.92091117 42.4494337 6.10472986 42.1855547 6.35135553 42.1747621 6.49619059 42.3709176 6.57713579 42.3350322 6.76149592 42.3930424 7.05576826 42.2575953 7.09096183 42.0811363 7.32838303 41.8944244 7.44831187 41.5598539 7.50895309 41.4575941 7.57988166 41.2598198 7.49325134 41.0949629 7.49460494 40.6921292 7.56769927 40.2604253 7.77236338 40.3613361 8.06230421 40.4293295 8.08369107 40.524844 8.25613954 40.3893969 8.38581429 40.3386717 8.54716324 39.9104754 8.94133117 39.5017058 9.27133852 39.3638304 9.35851027 38.9952632 9.55694783 38.6828176 9.80898789 38.4777583 10.0464091 38.252193 10.0499285 37.9017034 10.2462003 37.7851434 10.2088409 37.5846709 10.0618401 37.517487 10.1555091 37.4001175 10.0807905 37.0693244 9.97385621 37.0722924 9.88235294 37.2422758 9.64736822 37.256576 9.38937232 37.3990383 9.24183007 37.4535409 8.90072321 37.5361042 8.84549638 37.5598479 8.98681208 37.680725 8.90911552 37.705548 8.50466025 37.5819728 8.24287427 37.5355646 8.02088409 37.3917533 7.58069382 37.2903029 7.43721236 37.14865 7.37305178 36.895024 7.51517964 36.7617354 7.81865646 36.634113 7.9729667 36.4366085 7.90799397 36.3845342 7.81730286 36.4581937 7.55632904 36.6335734 7.4596821 36.6422074 7.24716711 36.7876377 7.12398964 36.7806225 6.71574429 36.7164065 6.53706927 36.5949898 6.38898557 36.6816004 6.25010635 36.5232191 6.03732065 36.4422746 6.05464671 36.1856806 5.94067371 36.0426787 5.94906602 35.9350226 5.80585528 35.7450729 5.80910392 35.5392041 5.7073133 35.3711094 5.74034111 35.2591362 5.95366825 35.349794 6.17647059 35.1493216 6.25308427 35.0945491 6.3426925 35.1280062 6.67594849 35.04949 6.88548556 34.9688154 6.87763468 34.9399452 6.48021812 34.8074661 6.69489887 34.6188655 6.76149592 34.6196749 6.9450439 34.4996073 7.01109951 34.537921 7.1372549 34.523351 7.38604633 34.3754924 7.69872762 34.4550878 7.97811038 34.4057117 8.22392389 34.7016986 8.83656263 34.7532333 9.15628263 34.7394727 9.45948873 34.6898268 9.67579379 34.6042955 9.83551843 34.5201132 10.09189 34.3692867 10.2545926 34.144261 10.4034884 33.8995389 10.4259582 33.8140076 10.3599025 33.6507696 9.96898325 33.5064186 9.73372781 33.514513 9.52202498 33.5166716 9.20040995 33.4033493 8.96948602 33.35856 8.70255637 33.4208873 8.35278648 33.4786277 8.21092934 33.4349176 8.00409947 33.4864523 7.75260084 33.5609212 7.68573307 33.5414945 7.50732877 33.5768403 7.25068647 33.7514105 6.7777391 33.8466552 6.63534053 33.8474646 6.49212979 33.6920513 6.56657772 33.5919499 6.85245775 33.4411234 6.94910469 33.3340069 7.17542638 33.224462 7.29806242 33.1354231 7.27559268 33.1675311 7.09989558 33.2719494 6.83729744 33.4136023 6.80183316 33.434378 6.6664733 33.4138721 6.63858916 33.6022029 6.29179719 33.6925909 6.02730402 33.7681391 5.95366825 33.9410904 5.93038636 33.9659134 5.77824187 34.0749186 5.79746297 34.0746488 5.94040299 34.3015631 5.81451831 34.3110066 5.69404803 34.3895228 5.62582666 34.607803 5.63286537 34.8018 5.57845071 34.9059485 5.42062111 35.0297936 5.41331168 35.2828799 5.47422361 35.4409915 5.60552268 35.5392041 5.61716363 35.4957639 5.52241173 35.5448702 5.39652705 35.7752921 5.49858839 35.9668607 5.42793054 36.387772 5.44688092 36.4401161 5.3532119 36.3481092 5.25196272 36.204028 5.27064238 36.204028 5.38082531 36.0472656 5.35781413 35.928547 5.209189 35.8778218 4.83234714 35.6652077 4.88892756 35.5780575 4.9896353 35.5097943 4.92439185 35.3689509 4.99125962 35.2167753 4.96581197 35.1506706 4.66774955 35.0122556 4.69021928 34.8330985 4.7933635 34.552491 4.81068956 34.3493204 4.85860695 33.9715795 5.1461113 33.7792015 5.13149244 33.7309046 5.07003906 33.5460814 5.1336582 33.4432819 5.09007232 33.2349848 4.81041884 33.0266877 4.71918629 32.7668559 4.7178327 32.6400429 4.88378389 32.6168388 4.68345129 32.6772774 4.56298101 32.9414262 4.20698457 32.7690145 4.14526047 32.6033481 4.24813397 32.4962316 4.3954055 32.2790306 4.57083188 32.2037522 4.68886568 32.1066189 4.70240167 31.9088445 4.87891093 31.5839874 4.95362958 31.4625707 5.0938624 31.1784556 5.22380787 31.0689107 5.21352052 30.8131262 5.04242565 30.906752 4.89515412 30.8398379 4.81935259 30.653126 4.931972 30.1402078 5.14177979 29.9715735 5.13582395 29.9116746 5.04892292 30.2359921 4.77387168 30.4388929 4.56622965 30.5659757 4.38809607 30.8730251 4.09165796 31.087528 3.96712689 31.4220984 3.83799358 31.6608846 3.68720269 31.670598 3.62737363 31.4833464 3.66283792 31.2793664 3.54074332 31.109383 3.57404185 30.9599055 3.54669915 30.8349812 3.58974359 30.7645595 3.43245543 30.5864817 3.50771551 30.4618272 3.61952276 30.240579 3.67285455 30.1307643 3.6021967 30.1264473 3.50717407 29.9076274 3.4443671 29.8693137 3.3442008 29.686649 3.40078122 29.6423993 3.50121824 29.5344734 3.26515064 29.4289757 3.27895734 29.3704259 3.16958657 29.1834442 3.08701706 29.0193967 3.06914955 28.833764 3.13331013 28.8351131 3.17933248 28.5971364 3.21479677 28.5601717 3.09757512 28.2806435 3.08024906 28.2523129 3.02854159 28.0140664 3.01283985 27.9382484 2.94813784 27.8362583 2.39018448 27.7407438 2.30951 27.5993608 2.29759833 27.6031382 2.70963375 26.1029674 2.70665584 21.1826227 2.46571528 17.300256 2.02308853 15.8365102 1.80434699 12.6103333 1.18494025 11.9158297 1.0319836 7.91177652 0"></polygon>
                <polygon id="Stroke-8" stroke="#D8D8D8" stroke-width="0.5" points="40.5164797 21.7268825 40.6451814 22.1873767 40.8443048 22.6936226 41.2247438 23.3411842 41.7589773 24.0120277 41.705554 24.0745639 41.7835305 24.4132343 42.0244752 24.7648993 42.4308165 25.4855552 42.5255215 25.7167498 42.5627559 25.9639169 42.606466 26.8629771 42.5182365 26.8976293 42.4672415 27.1856751 42.5139195 27.2677031 42.3582362 27.4994392 42.2767521 27.4628921 42.1056895 27.5738871 41.7997194 27.6726998 41.6904444 27.5774065 41.7104107 27.404958 41.4163124 26.9663921 41.2290609 26.9057509 41.0922647 26.9931933 40.9338834 26.748192 40.8691278 26.5351356 40.6333095 26.3245156 40.5596501 26.1723711 40.5580312 25.9398229 40.4385032 25.9141045 40.4857208 26.0470279 40.3912856 26.0973818 40.000054 25.5583788 39.8575917 25.428704 40.0882834 24.9557567 39.90373 25.0090884 39.7968833 25.1606915 39.6417398 24.966044 39.7248428 24.353676 39.686529 23.8579882 39.5551292 23.7561975 39.4973888 23.6005337 39.3114863 23.5897049 39.0646057 23.3593224 38.8832901 23.2767529 38.8487538 23.1175697 38.7224804 23.0742546 38.6029524 22.9093862 38.2138793 22.7187996 37.9097979 22.8103028 37.947572 22.9727347 37.8388366 22.95595 37.4726977 23.2071779 37.0647376 23.3011177 37.0601507 23.1814596 36.9479077 23.0507019 36.4266253 22.7805236 36.0629148 22.6819817 35.7491201 22.676838 35.4936054 22.7252968 34.9345489 22.8804192 34.8107039 22.9283366 34.5589665 22.7702363 34.5101301 22.5043895 34.4375498 22.4770468 34.367398 22.6898325 34.352828 22.8874579 34.107836 22.8541594 34.0112423 22.9120934 33.78136 22.9031597 33.6842266 22.8406234 33.4643275 22.9037011 33.1578177 23.0520555 33.0663505 23.1348958 32.7997734 23.3057199 32.7846637 23.4131957 33.0185932 23.470859 33.1033151 23.2886646 33.3091839 23.450555 33.3056763 23.5872684 33.1950522 23.6546777 32.9794701 23.6162354 33.0129271 23.7169432 32.9522188 23.8739606 33.1432477 24.0006575 33.434378 24.0231272 33.5477003 24.1744595 33.6337712 24.1912442 33.4961656 24.3872452 33.3291502 24.3661291 33.173467 24.1844762 32.8205491 24.1051553 32.8084074 23.919983 32.6395033 23.9906408 32.6624376 24.1452218 32.5914762 24.2922226 32.4684406 24.3263333 32.3653714 24.170128 32.1473609 24.1760838 32.0815261 24.3490738 31.9371751 24.4034884 31.7758258 24.3095487 31.6509015 24.3060293 31.5173431 24.0442433 31.298793 23.9356847 31.2154202 23.9562594 31.125302 23.7348107 30.874644 23.7759601 30.8641212 23.6368101 30.6266841 23.7797502 30.66176 23.8777507 30.4793652 23.9811656 30.1898538 23.9457014 29.8482681 23.807905 29.6075932 23.7488881 29.0960241 23.8154852 29.0307289 23.8601539 28.8758552 23.8701706 28.3869506 24.0282709 28.2083331 23.9448892 28.174876 23.7662142 28.0526499 23.8937232 27.9681978 23.8647562 27.92125 24.0212322 28.0194626 24.0864756 28.039429 24.2881618 27.8637794 24.5055498 27.580204 24.7759988 27.0036095 25.0656689 26.9453295 25.0161272 26.7748065 25.08868 26.7704894 25.0223537 26.5325127 25.0710833 26.421349 24.9316626 26.3538952 24.9609003 26.603474 25.2435317 26.4186508 25.3317864 26.2483976 25.2776424 26.2197972 25.4722899 26.0012471 25.675059 25.7751423 26.0454036 25.6243157 26.4357814 25.5198974 26.4046486 25.4904875 26.549213 25.604889 26.5145609 25.5457996 26.7971922 25.4724099 26.8091039 25.4651249 26.9704529 25.5509261 27.0606025 25.5733207 27.3868198 25.6823259 27.5002514 25.7071489 27.7076227 25.7878236 27.8925243 25.485361 28 25.3628651 27.8565185 25.132713 27.7996674 24.8229654 27.8061647 24.5644828 27.6190973 24.3667084 27.597169 24.2185801 27.4515218 24.0132509 27.3960243 23.8796925 27.2566036 23.7990179 26.9279499 23.6322723 26.7243686 23.6562858 26.5603125 23.5855943 26.3762231 23.6185117 26.2257029 23.5024913 26.0464864 23.3988824 26.0259117 23.2418501 25.8645628 23.2002986 25.6645009 23.0635024 25.4801408 22.86303 25.3225819 22.7791175 24.9909502 22.6892692 24.8972812 22.5764865 24.6300808 22.5470767 24.4132343 22.4345639 24.2518854 22.2373292 24.1021774 22.198206 24.0039061 22.0166206 23.9110492 21.8838717 23.6644236 21.4764512 23.5872684 21.224444 23.5810419 21.0226225 23.4846657 20.966501 23.5940364 20.739047 23.6148819 20.5507162 23.8309162 20.4225541 24.1869126 20.3642741 24.1893491 20.2193835 24.3942839 20.0631607 24.3858916 19.8405634 24.2023437 19.2771898 23.8864137 19.1746602 23.7310206 18.9612366 23.5756275 18.830916 23.2507638 18.8433275 22.9686739 18.7065313 22.7293576 18.6900726 22.5276714 18.5975261 22.3920408 18.2540517 22.1749236 18.0883854 21.9044746 17.9418759 21.7991646 17.7956362 21.5666164 17.5749276 21.4290908 17.4470353 21.1239896 17.3204921 21.0498124 15.7830868 20.8643694 15.7191407 21.3592451 14.9496286 21.2561009 13.0957303 20.9788839 12.0909396 20.396295 9.93457888 19.1117299 10.0665184 18.8867618 8.86314388 18.7424682 7.88317614 18.6252465 7.80654871 18.460649 7.85322669 18.2354101 7.84675113 17.9568395 7.76580666 17.7397223 7.54914529 17.4189194 7.25720556 17.0959508 7.17194405 17.1444096 7.05106697 17.0707739 7.09234865 16.9708783 6.99359639 16.7166725 6.77882373 16.712341 6.45504584 16.4670689 6.43453991 16.3243996 6.23136928 16.1043044 5.95885622 16.0414975 5.74705152 15.9107398 5.45295327 15.8647175 5.34044046 15.6863132 5.45106457 15.3974552 5.41113196 15.3384383 5.49855199 15.1370229 5.31696656 14.9188228 5.36688232 14.7003519 5.28620766 14.6681363 5.19770837 14.4431682 5.11001853 14.3744054 5.10192408 14.2474378 4.89821383 13.722783 4.78111416 13.5511467 4.84506029 13.2008354 4.89929308 13.2473992 5.01801164 13.0616854 4.94947866 12.8410488 4.79946157 12.8229106 4.65672948 12.6017326 4.62462151 12.4498588 4.67669579 12.3253278 4.62785929 12.1304096 4.7077245 11.8504854 4.86124918 11.8946127 4.91062531 11.4874502 4.82995065 11.5096492 4.76438563 11.6961751 4.59143428 11.6915729 4.43844922 11.4904281 4.48081016 11.2308079 4.41254699 10.9979889 4.28546417 10.827977 4.23905601 10.6639208 4.08283318 10.3203775 4.14435098 10.2516146 4.14138301 9.86638048 4.24849953 9.6855397 4.26630731 9.36960978 4.15055672 9.01632053 4 8.79514251 4.02212482 8.59210272 4.36074253 8.19279112 4.44492478 8.04714391 4.4451946 7.91476196 4.61409873 7.62048962 4.63622355 7.31295201 4.57443594 7.21738794 4.6769656 6.99756352 4.6062741 6.84298256 4.64917467 6.48617396 4.73605507 6.25470859 4.6896469 6.03813281 4.81726935 5.88923696 4.95649385 5.62528522 5.15723614 5.35970917 5.28674729 5.11064702 5.639935 4.24894613 5.66259946 4.12387361 5.8533586 3.75542406 6.04249885 3.22752059 6.09511275 2.91835866 6.18253278 2.75132459 6.52034105 2.68391538 6.39973378 2.60621882 6.27346041 2.63356151 6.16499481 2.50388676 6.23622595 2.36663186 6.35251617 2.32250454 6.27049244 2.05963569 6.34442173 1.4683838 6.31123449 1.37525622 6.35332562 0.95428704 6.26239799 0.757203078 6.30098153 0.435588042 6.43939657 0.255288703 6.55002069 0.396062962 6.79932966 0.613180183 6.99710399 0.669760606 7.17626108 0.778048498 7.37538449 0.782380013 7.43852117 0.896894458 7.60445734 0.941833933 7.65788069 1.20361991 7.74611017 1.20849286 7.6743394 1.52333991 7.64492958 1.81625865 7.7231759 1.80786634 7.72155701 1.54716324 7.8081676 1.31867579 7.9911021 1.11455312 7.92634653 0.990292764 7.96816784 0.817844297 7.9530582 0.608577948 8.02455915 0.482422555 8.02347989 0.311598407 7.91960115 0.254476544 7.85295687 0.105580694 7.91177652 0 11.9158297 1.0319836 12.6103333 1.18494025 15.8365102 1.80407627 17.300256 2.02308853 21.1826227 2.46544456 26.1029674 2.70665584 27.6031382 2.70963375 27.5993608 2.29759833 27.7407438 2.30923928 27.8359885 2.38991376 27.9382484 2.94813784 28.0137965 3.01256913 28.2523129 3.02827087 28.2806435 3.08024906 28.5601717 3.0973044 28.5968665 3.21452605 28.8348433 3.17906176 28.833764 3.13331013 29.0193967 3.06887883 29.1834442 3.08674634 29.3704259 3.16931585 29.4287059 3.27868662 29.5342035 3.26515064 29.6423993 3.50094752 29.686649 3.4005105 29.8693137 3.34393008 29.9076274 3.44409638 30.1264473 3.50690335 30.1307643 3.6021967 30.240579 3.67258383 30.4615574 3.61925204 30.5864817 3.50771551 30.7645595 3.43245543 30.8349812 3.58974359 30.9599055 3.54642843 31.109383 3.57377113 31.2793664 3.5404726 31.4833464 3.6625672 31.670598 3.62710291 31.6608846 3.68720269 31.4220984 3.83799358 31.087528 3.96712689 30.8730251 4.09138725 30.5659757 4.38809607 30.4388929 4.56595893 30.2359921 4.77387168 29.9116746 5.04892292 29.9715735 5.13555324 30.1402078 5.14150907 30.653126 4.93170128 30.8398379 4.81935259 30.9070218 4.89515412 30.8131262 5.04242565 31.0689107 5.2132498 31.1784556 5.22353715 31.4628405 5.09359168 31.5839874 4.95335886 31.9088445 4.87864021 32.1068887 4.70240167 32.2037522 4.68859496 32.2790306 4.57056116 32.4962316 4.39513478 32.6033481 4.24786325 32.7690145 4.14526047 32.9414262 4.20671385 32.6772774 4.56271029 32.6168388 4.68345129 32.6397731 4.88351317 32.7668559 4.71756198 33.0266877 4.71891557 33.2349848 4.81014812 33.4430121 5.0898016 33.5460814 5.1336582 33.7309046 5.06976834 33.7792015 5.13149244 33.9718493 5.1461113 34.3493204 4.85860695 34.552491 4.81068956 34.8330985 4.7933635 35.0119858 4.68994856 35.1506706 4.66747883 35.2167753 4.96554125 35.3686811 4.9909889 35.5097943 4.92439185 35.5780575 4.98936458 35.6649379 4.88865684 35.8778218 4.83234714 35.928547 5.209189 36.0472656 5.35754341 36.204028 5.38082531 36.204028 5.27064238 36.3481092 5.251692 36.4398463 5.35294118 36.387772 5.44688092 35.9665909 5.42765982 35.7752921 5.49831767 35.5448702 5.39625633 35.4957639 5.52214101 35.5392041 5.61716363 35.4409915 5.60552268 35.2828799 5.47395289 35.0297936 5.41304096 34.9059485 5.42035039 34.8020698 5.57845071 34.607803 5.63259466 34.3895228 5.62555594 34.3107368 5.69377731 34.3015631 5.81451831 34.0746488 5.94040299 34.0746488 5.79719225 33.9656436 5.77797115 33.9410904 5.93011564 33.7681391 5.95339753 33.6925909 6.0270333 33.6022029 6.29179719 33.4136023 6.63831844 33.434378 6.6664733 33.4136023 6.80156244 33.2722193 6.83729744 33.1678009 7.09935414 33.1351533 7.27559268 33.224462 7.29806242 33.3340069 7.17515566 33.4411234 6.94910469 33.5916801 6.85218703 33.6920513 6.566307 33.8474646 6.49185907 33.8466552 6.63534053 33.7514105 6.77746838 33.5768403 7.25041575 33.5414945 7.50705805 33.5609212 7.68573307 33.4864523 7.75233012 33.4349176 8.00409947 33.4786277 8.21065862 33.4208873 8.35251576 33.3582902 8.70228565 33.4033493 8.9692153 33.5164017 9.20040995 33.5142432 9.52202498 33.5061488 9.73372781 33.6507696 9.96898325 33.8140076 10.3599025 33.8995389 10.4259582 34.144261 10.4032177 34.3692867 10.2543218 34.5201132 10.09189 34.6042955 9.83524771 34.6898268 9.67552307 34.7394727 9.45921801 34.7532333 9.15601191 34.7016986 8.83629191 34.4059815 8.22365317 34.4550878 7.97783966 34.3754924 7.6984569 34.523351 7.38577561 34.537921 7.1372549 34.4993375 7.01082879 34.6199447 6.9450439 34.6188655 6.76149592 34.8074661 6.69462815 34.9399452 6.4799474 34.9688154 6.87736396 35.04949 6.88521484 35.1280062 6.67594849 35.0945491 6.3426925 35.1493216 6.25281355 35.349794 6.17647059 35.2591362 5.95339753 35.3708396 5.74034111 35.5389343 5.70704258 35.7450729 5.8088332 35.9350226 5.80558456 36.0429485 5.9487953 36.1859504 5.94067371 36.4422746 6.05437599 36.5229493 6.03704993 36.6816004 6.25010635 36.5949898 6.38898557 36.7164065 6.53679855 36.7803527 6.71574429 36.7873679 7.12371892 36.6424773 7.24689639 36.6335734 7.45941138 36.4581937 7.55605832 36.3845342 7.81730286 36.4366085 7.90772325 36.6338432 7.9729667 36.7617354 7.81838574 36.895024 7.51517964 37.14865 7.37305178 37.2903029 7.43694164 37.3917533 7.58069382 37.5355646 8.02088409 37.5819728 8.24287427 37.705548 8.50466025 37.6804552 8.9088448 37.5598479 8.98681208 37.5361042 8.84522566 37.4535409 8.90072321 37.3990383 9.24155935 37.256576 9.38937232 37.2422758 9.6470975 37.0722924 9.88235294 37.0693244 9.97358549 37.4001175 10.0805198 37.517487 10.1552384 37.5846709 10.0615694 37.7851434 10.2088409 37.9017034 10.2462003 38.2524628 10.0496577 38.4777583 10.0461384 38.6828176 9.80871718 38.9949934 9.55694783 39.3635606 9.35851027 39.5017058 9.27133852 39.9104754 8.94106045 40.3386717 8.54716324 40.3893969 8.38554357 40.524844 8.25586882 40.4293295 8.08369107 40.3613361 8.06203349 40.2604253 7.77209266 40.6921292 7.56769927 41.0949629 7.49460494 41.2598198 7.49298062 41.4573243 7.57988166 41.5601238 7.50868237 41.8944244 7.44804115 42.0808665 7.32811231 42.2575953 7.09069111 42.3930424 7.05549754 42.3350322 6.76149592 42.3709176 6.57713579 42.1747621 6.49619059 42.1855547 6.35108481 42.4494337 6.10472986 42.5287593 5.92091117 42.8150329 5.48424024 43.1161463 5.22922226 43.6314928 5.14096763 44.2242761 4.9717678 44.9994544 4.7920099 45.5952057 4.62335151 45.6283929 4.32637197 45.8059311 4.30958735 45.8269767 4.23541014 46.1059653 4.00502765 46.0333851 3.94249139 46.1102823 3.74946823 46.2130818 3.63874386 46.1712605 3.581622 46.2613787 3.45357157 46.1761172 3.27814518 46.1718001 2.98414356 46.2581409 2.86042464 46.217129 2.55613567 46.5427956 1.59535136 46.6828296 1.59237344 46.7454266 1.78350157 46.8592885 1.82546312 47.0562534 1.64353947 47.1995251 1.60076575 47.2801998 1.49383146 47.5268106 1.60157791 47.6849221 1.70147349 48.0513308 2.86746336 48.1193241 3.15144835 48.3948052 3.14955331 48.3934561 3.2784159 48.4943669 3.37533357 48.4744006 3.49255521 48.6263064 3.61898132 48.753659 3.54426268 49 3.87372858 48.8998987 4.08624357 48.7903538 4.05105001 48.7531194 4.18776347 48.6406065 4.19128282 48.6570653 4.29415632 48.5181106 4.32312333 48.3643161 4.61658352 48.2650242 4.47662142 48.1848892 4.48690877 48.2739281 4.64419693 48.1233714 4.77630816 48.0462043 4.65719148 47.982528 4.74896546 47.7906896 4.80581661 47.7423927 4.65367212 47.6401329 4.71837413 47.6900486 4.82503771 47.6520047 5.08547009 47.6913977 5.14313339 47.5872491 5.30881386 47.4337245 5.30448235 47.3902843 5.45879259 47.2793903 5.51131222 47.2149046 5.64721352 47.0956464 5.65668871 47.0281927 5.55137874 46.9094741 5.78149051 46.9874506 5.88409328 46.8749378 5.96043625 46.8951739 6.06195614 46.7864385 6.22303438 46.7513626 6.52975983 46.715747 6.75364505 46.7942631 6.92934215 46.8028972 7.08933751 46.7173659 7.26097382 46.7581079 7.42638357 46.9340273 7.40256024 47.0810764 7.54225161 47.0996936 7.68248443 47.1927798 7.69493754 47.2372992 7.81432494 47.4801326 7.85791082 47.7032696 7.68789883 47.6900486 7.85114282 47.3530498 8.08017171 47.2197612 8.12375759 47.1123749 8.04579031 46.9923073 8.10968016 47.0095754 8.18791817 46.8754774 8.27265344 46.7276189 8.3365433 46.762425 8.09912209 46.7349039 8.06853077 46.6348025 8.0744866 46.596219 8.25397378 46.6291364 8.48354411 46.3450213 8.61348958 46.271092 8.61538462 45.9494727 8.78431373 45.5344973 8.86444676 45.3931143 9.05449201 45.2117987 9.14707816 45.018881 9.32412886 45.3780047 9.32981398 45.4325073 9.2477859 45.7214791 9.17604517 45.8607036 9.10322156 46.0584779 8.87365124 46.1081238 8.99195576 46.2470785 9.01144758 45.9948016 9.2450787 45.4430301 9.63058359 45.1969589 9.73860077 45.0229283 9.77000425 44.9082569 9.85230305 44.7960139 9.69339057 44.6818822 9.79572263 44.6524724 9.97439765 44.8885604 10.0047183 44.9365875 10.1238349 44.973822 10.7232084 44.8194878 11.2126697 44.6840407 11.3742894 44.5995887 11.675059 44.4835683 11.5161465 44.2269743 11.4812237 43.8856584 11.3103995 43.8316955 11.1541942 43.8227916 11.1322659 43.855709 11.0635031 43.7839382 11.1544649 43.8397899 11.3204161 43.9968222 11.4536102 44.0853215 11.7116061 44.319251 11.9509224 44.4058616 11.9419886 44.5235009 12.3063774 44.4619831 12.7969215 44.3934501 13.0040221 44.2949677 13.0941718 44.2779693 13.3548749 44.192438 13.7947944 44.0645457 13.9079553 43.989807 13.7698882 43.9900768 13.4241791 44.1263333 12.9563754 43.957699 13.0443594 43.9231627 12.8635186 43.8424881 12.8091039 43.9185759 12.7102912 43.7569567 12.5603125 43.7310545 12.6480257 43.5564843 12.6645396 43.4539546 12.484511 43.5081874 12.4731407 43.462049 12.215957 43.4955061 12.1063155 43.3500758 11.7779325 43.3962142 11.5597324 43.5297726 11.493406 43.5049496 11.2833275 43.4070068 11.328267 43.4253542 11.4338477 43.240531 11.6165835 43.2051852 11.7538384 43.2545614 12.068144 43.204106 12.2324709 43.2942242 12.4734115 43.4380355 12.6212244 43.4499074 12.7555014 43.5473105 12.8719109 43.5268046 12.9685578 43.3009695 12.8378002 43.011728 12.8085625 42.8970566 12.6612909 42.7610699 12.7877171 42.6766178 12.6680589 42.7678153 12.4790966 42.676348 12.5454229 42.6450495 12.7119155 42.7022503 12.8166841 42.9162135 12.7357389 42.9939202 12.9008779 43.2996205 12.9098117 43.4097049 13.0305527 43.6703461 13.1296361 43.6279852 13.4531461 43.775574 13.6683683 43.6849161 13.8037282 43.6978673 13.9445025 43.8214425 14.0040608 43.7342923 14.1591832 43.5208687 14.0224697 43.4936174 14.0896082 43.6733141 14.1821944 44.0939555 14.1239896 44.2868732 14.503268 44.4749342 14.9144912 44.2307517 14.9226128 44.2059287 14.9827126 43.9323364 15.108868 43.9004983 15.1770894 43.7118976 15.2333991 43.7399584 15.3094713 43.9614764 15.2087636 44.0030279 15.2477472 44.2517973 15.1402715 44.3567553 15.2204045 44.5002968 15.1483931 44.6120002 15.3944773 44.5866376 15.5301079 44.4889646 15.56476 44.3281549 15.8763584 44.0435002 15.9464748 44.0329774 16.1400394 44.1927078 16.297869 44.3014432 16.3124879 44.1773284 16.6525119 44.0154394 16.6487218 43.7442754 16.7350814 43.5659278 16.8393085 43.3082545 17.1051553 43.1191143 17.4246046 43.0616437 17.7927834 42.8611712 17.7497389 42.55682 17.8818502 42.4135483 17.9627954 42.2511197 18.1755811 42.1143236 18.4888038 42.1172915 18.7221642 41.9983032 18.9262869 41.7975609 18.9617512 41.7778644 19.097111 41.5887241 19.278764 41.4972569 19.4533782 41.3224168 19.5473179 41.1478466 19.7487334 41.1389427 19.8277836 40.9673404 19.947171 40.8014042 20.2135592 40.638436 20.6172023 40.6252151 20.8113083 40.5572217 20.9937734 40.5752993 21.1659512 40.4843717 21.2609738"></polygon>
            </g>
        </g>
    </g>
</svg>